<?xml version="1.0" encoding="UTF-8"?>
<!DOCTYPE svg PUBLIC "-//W3C//DTD SVG 1.1//EN" "http://www.w3.org/Graphics/SVG/1.1/DTD/svg11.dtd">
<svg xmlns="http://www.w3.org/2000/svg" version="1.1" width="2048px" height="2048px" style="shape-rendering:geometricPrecision; text-rendering:geometricPrecision; image-rendering:optimizeQuality; fill-rule:evenodd; clip-rule:evenodd" xmlns:xlink="http://www.w3.org/1999/xlink">
<g><path style="opacity:0.999" fill="#d2000c" d="M 14.5,13.5 C 687.833,13.5 1361.17,13.5 2034.5,13.5C 2034.5,552.167 2034.5,1090.83 2034.5,1629.5C 1361.17,1629.5 687.833,1629.5 14.5,1629.5C 14.5,1090.83 14.5,552.167 14.5,13.5 Z"/></g>
<g><path style="opacity:1" fill="#fefefe" d="M 751.5,859.5 C 720.336,858.336 689.003,858.169 657.5,859C 658.044,859.717 658.711,860.217 659.5,860.5C 672.051,866.692 684.551,873.026 697,879.5C 702.016,919.447 706.516,959.447 710.5,999.5C 706.494,1000.22 702.494,1001.06 698.5,1002C 697.484,1002.52 696.818,1003.35 696.5,1004.5C 702.54,1058.33 705.373,1112.33 705,1166.5C 703.414,1183.84 695.914,1198.01 682.5,1209C 662.328,1223.59 640.995,1236.43 618.5,1247.5C 619.976,1250.41 620.81,1253.41 621,1256.5C 590.828,1271.22 559.995,1284.39 528.5,1296C 474.84,1314.75 421.507,1334.42 368.5,1355C 328.842,1370.16 291.509,1389.49 256.5,1413C 226.287,1433.87 202.454,1460.37 185,1492.5C 183.269,1494.62 181.102,1496.12 178.5,1497C 160.063,1499.72 150.73,1491.88 150.5,1473.5C 151.165,1470.69 151.498,1467.69 151.5,1464.5C 151.483,1461.09 150.816,1458.09 149.5,1455.5C 147.876,1455.64 146.71,1454.97 146,1453.5C 145.333,1448.83 145.333,1444.17 146,1439.5C 147.287,1436.86 149.453,1435.86 152.5,1436.5C 153.123,1429.18 154.456,1422.01 156.5,1415C 153.558,1414.06 152.225,1412.06 152.5,1409C 152.955,1403.62 154.955,1398.96 158.5,1395C 160.445,1395.13 162.278,1394.96 164,1394.5C 166.397,1389.37 169.064,1384.37 172,1379.5C 182.379,1367.46 192.379,1355.12 202,1342.5C 203.986,1338.7 205.819,1334.86 207.5,1331C 205.699,1329.4 204.699,1327.4 204.5,1325C 205.383,1320.35 207.049,1316.02 209.5,1312C 211.659,1311.09 213.825,1310.25 216,1309.5C 217.107,1306.12 218.607,1302.95 220.5,1300C 219.465,1298.73 218.298,1297.56 217,1296.5C 217.811,1290.39 220.644,1285.22 225.5,1281C 227.811,1281.16 230.144,1281.16 232.5,1281C 242.134,1272.15 253.134,1270.15 265.5,1275C 276.647,1282.16 288.647,1287.16 301.5,1290C 323.986,1293.06 343.653,1287.06 360.5,1272C 385.167,1249.33 409.833,1226.67 434.5,1204C 451.621,1189.28 469.287,1175.28 487.5,1162C 503.22,1150.97 520.22,1142.31 538.5,1136C 544.492,1134.77 550.492,1133.6 556.5,1132.5C 537.592,1090.75 521.926,1048.09 509.5,1004.5C 503.764,1003.42 498.097,1002.09 492.5,1000.5C 467.784,924.419 453.284,846.419 449,766.5C 448.005,745.095 448.505,723.762 450.5,702.5C 451.404,701.791 451.737,700.791 451.5,699.5C 450.209,699.263 449.209,699.596 448.5,700.5C 444.736,701.881 441.069,703.547 437.5,705.5C 436.808,704.975 436.308,704.308 436,703.5C 434.995,697.38 434.495,691.213 434.5,685C 439.863,604.319 453.697,525.153 476,447.5C 480.659,432.186 486.492,417.353 493.5,403C 510.326,396.725 526.993,390.058 543.5,383C 497.145,379.522 450.811,376.189 404.5,373C 357.539,414.14 310.206,454.807 262.5,495C 259.667,497.833 256.833,500.667 254,503.5C 249.211,513.868 245.211,524.534 242,535.5C 232.167,543.333 222.333,551.167 212.5,559C 191.6,571.714 168.933,577.048 144.5,575C 139.087,573.387 134.92,570.22 132,565.5C 131.333,564.167 131.333,562.833 132,561.5C 142.385,552.726 153.219,544.559 164.5,537C 169.389,532.614 173.722,527.78 177.5,522.5C 177.167,522.167 176.833,521.833 176.5,521.5C 162.624,529.961 147.624,534.461 131.5,535C 127.695,530.909 126.528,526.076 128,520.5C 136.744,515.577 145.91,511.411 155.5,508C 168.172,502.328 178.005,493.495 185,481.5C 195.413,469.211 208.58,462.044 224.5,460C 269.637,401.268 316.804,344.101 366,288.5C 370.771,283.864 376.271,280.364 382.5,278C 391.472,276.986 400.472,276.152 409.5,275.5C 411.374,269.88 413.041,264.213 414.5,258.5C 473.339,252.152 532.339,249.985 591.5,252C 621.986,252.538 651.819,257.038 681,265.5C 678.856,228.253 690.356,196.087 715.5,169C 741.69,148.063 771.357,141.063 804.5,148C 833.779,155.709 858.279,170.876 878,193.5C 887.347,204.863 892.847,217.863 894.5,232.5C 889.637,247.596 885.471,262.929 882,278.5C 881.938,296.207 882.605,313.873 884,331.5C 882.878,333.624 881.378,335.457 879.5,337C 871.333,341.167 865.167,347.333 861,355.5C 852.678,371.653 844.844,387.986 837.5,404.5C 820.709,402.99 803.875,401.657 787,400.5C 784.833,400.833 782.667,401.167 780.5,401.5C 753.922,456.325 732.089,512.992 715,571.5C 709.982,589.945 706.149,608.612 703.5,627.5C 785.685,636.92 867.685,647.753 949.5,660C 951.5,665.667 953.5,671.333 955.5,677C 1008.97,683.865 1060.3,698.198 1109.5,720C 1127.8,721.215 1146.14,722.215 1164.5,723C 1173.18,724.462 1181.68,726.628 1190,729.5C 1192.73,727.108 1195.73,725.108 1199,723.5C 1220.84,730.556 1242.34,738.389 1263.5,747C 1303.79,764.649 1344.12,781.983 1384.5,799C 1472.82,831.498 1564.15,847.165 1658.5,846C 1669.7,847.941 1676.7,854.441 1679.5,865.5C 1679.06,868.214 1677.73,870.38 1675.5,872C 1672.61,874.557 1669.44,876.724 1666,878.5C 1665.61,880.179 1665.77,881.845 1666.5,883.5C 1666.47,885.029 1665.8,886.196 1664.5,887C 1660.51,889.343 1656.34,891.177 1652,892.5C 1649.73,891.729 1647.9,890.396 1646.5,888.5C 1644.5,889.5 1642.5,890.5 1640.5,891.5C 1639.45,892.922 1639.45,894.422 1640.5,896C 1640.1,897.473 1639.43,898.806 1638.5,900C 1633.89,903.156 1628.89,904.822 1623.5,905C 1622.78,902.259 1621.11,901.259 1618.5,902C 1591.02,914.576 1563.68,927.41 1536.5,940.5C 1537.93,942.331 1538.43,944.331 1538,946.5C 1533.39,951.059 1527.89,953.226 1521.5,953C 1520.27,951.365 1518.94,949.865 1517.5,948.5C 1514.92,949.706 1512.42,951.039 1510,952.5C 1511.13,955.888 1510.63,959.055 1508.5,962C 1503.83,964.784 1498.83,966.117 1493.5,966C 1492.69,964.197 1491.52,962.697 1490,961.5C 1468.76,969.381 1455.1,962.381 1449,940.5C 1447.65,928.714 1445.65,917.047 1443,905.5C 1441.13,902.813 1438.63,900.979 1435.5,900C 1374.47,888.812 1312.97,885.312 1251,889.5C 1223.7,890.837 1196.87,888.003 1170.5,881C 1165.38,878.94 1160.38,876.607 1155.5,874C 1145.49,866.659 1134.83,860.326 1123.5,855C 1118.37,852.907 1113.04,851.574 1107.5,851C 1048.5,849.373 989.502,847.873 930.5,846.5C 929.755,851.228 928.755,855.894 927.5,860.5C 868.839,859.59 810.173,859.257 751.5,859.5 Z"/></g>
<g><path style="opacity:1" fill="#fefefe" d="M 1798.5,587.5 C 1845.88,585.604 1882.05,604.604 1907,644.5C 1926.23,681.469 1926.23,718.469 1907,755.5C 1876.35,802.5 1833.52,820 1778.5,808C 1740.5,795.996 1715,771.162 1702,733.5C 1689.88,688.398 1700.38,649.564 1733.5,617C 1752.24,600.626 1773.91,590.793 1798.5,587.5 Z"/></g>
<g><path style="opacity:1" fill="#e97c85" d="M 448.5,700.5 C 449.209,699.596 450.209,699.263 451.5,699.5C 451.737,700.791 451.404,701.791 450.5,702.5C 450.5,701.167 449.833,700.5 448.5,700.5 Z"/></g>
<g><path style="opacity:1" fill="#e77179" d="M 751.5,859.5 C 720.662,859.169 689.995,859.502 659.5,860.5C 658.711,860.217 658.044,859.717 657.5,859C 689.003,858.169 720.336,858.336 751.5,859.5 Z"/></g>
<g><path style="opacity:1" fill="#f2b1b6" d="M 149.5,1455.5 C 150.816,1458.09 151.483,1461.09 151.5,1464.5C 151.498,1467.69 151.165,1470.69 150.5,1473.5C 150.789,1467.41 150.455,1461.41 149.5,1455.5 Z"/></g>
<g><path style="opacity:0.98" fill="#11110f" d="M 1202.5,1811.5 C 1231.55,1809.67 1259.72,1813.67 1287,1823.5C 1287.83,1837.84 1287.67,1852.18 1286.5,1866.5C 1260.03,1856.98 1233.03,1853.48 1205.5,1856C 1192.24,1857.76 1185.57,1865.26 1185.5,1878.5C 1184.58,1886.84 1187.92,1892.67 1195.5,1896C 1218.56,1901.41 1241.56,1907.08 1264.5,1913C 1285.85,1921.51 1296.35,1937.34 1296,1960.5C 1299.74,2000.4 1282.24,2024.9 1243.5,2034C 1206.83,2039.86 1170.83,2037.03 1135.5,2025.5C 1135.33,2010.83 1135.5,1996.16 1136,1981.5C 1167.13,1992.86 1198.97,1995.69 1231.5,1990C 1242.15,1984.31 1245.99,1975.48 1243,1963.5C 1242.59,1959.51 1240.75,1956.34 1237.5,1954C 1231.77,1951.2 1225.77,1949.2 1219.5,1948C 1200.61,1944.56 1181.95,1940.22 1163.5,1935C 1146.67,1928.5 1136.84,1916.34 1134,1898.5C 1125.88,1844.81 1148.71,1815.81 1202.5,1811.5 Z"/></g>
<g><path style="opacity:0.981" fill="#11110f" d="M 1702.5,1811.5 C 1723.68,1810.61 1744.68,1812.11 1765.5,1816C 1773.79,1817.6 1781.79,1820.1 1789.5,1823.5C 1790.67,1837.82 1790.83,1852.16 1790,1866.5C 1760.9,1856.22 1731.07,1853.05 1700.5,1857C 1680.36,1861.48 1668.86,1873.98 1666,1894.5C 1662.02,1918.73 1663.02,1942.73 1669,1966.5C 1675.25,1982.72 1687.08,1991.89 1704.5,1994C 1719.51,1995.67 1734.51,1995.5 1749.5,1993.5C 1749.5,1977.5 1749.5,1961.5 1749.5,1945.5C 1735.83,1945.5 1722.17,1945.5 1708.5,1945.5C 1708.17,1932.82 1708.5,1920.15 1709.5,1907.5C 1710.09,1907.29 1710.59,1906.96 1711,1906.5C 1738.54,1906.96 1766.04,1907.29 1793.5,1907.5C 1794.67,1946.83 1794.83,1986.16 1794,2025.5C 1754.41,2038.22 1714.24,2040.39 1673.5,2032C 1638.75,2021.91 1617.91,1999.08 1611,1963.5C 1606.09,1935.77 1606.43,1908.1 1612,1880.5C 1620.8,1844.04 1643.63,1822.2 1680.5,1815C 1687.95,1813.68 1695.29,1812.51 1702.5,1811.5 Z"/></g>
<g><path style="opacity:0.982" fill="#11110f" d="M 14.5,1815.5 C 55.168,1815.33 95.8347,1815.5 136.5,1816C 172.993,1817.32 191.326,1836.16 191.5,1872.5C 192.593,1895.18 182.593,1910.35 161.5,1918C 156.833,1919.33 152.167,1920.67 147.5,1922C 161.775,1924.22 174.275,1930.06 185,1939.5C 191.89,1949.72 195.056,1961.05 194.5,1973.5C 194.649,2012.19 175.316,2032.02 136.5,2033C 95.8347,2033.5 55.168,2033.67 14.5,2033.5C 14.5,1960.83 14.5,1888.17 14.5,1815.5 Z M 66.5,1853.5 C 84.8364,1853.33 103.17,1853.5 121.5,1854C 128.798,1855.3 133.631,1859.46 136,1866.5C 138.726,1877.57 137.726,1888.24 133,1898.5C 127.849,1903.33 121.683,1905.83 114.5,1906C 98.5035,1906.5 82.5035,1906.67 66.5,1906.5C 66.5,1888.83 66.5,1871.17 66.5,1853.5 Z M 66.5,1940.5 C 85.1696,1940.33 103.836,1940.5 122.5,1941C 129.272,1942.14 134.438,1945.64 138,1951.5C 141.333,1962.83 141.333,1974.17 138,1985.5C 134.822,1990.51 130.322,1993.68 124.5,1995C 105.17,1995.5 85.8362,1995.67 66.5,1995.5C 66.5,1977.17 66.5,1958.83 66.5,1940.5 Z"/></g>
<g><path style="opacity:0.988" fill="#11110f" d="M 229.5,1815.5 C 247.5,1815.5 265.5,1815.5 283.5,1815.5C 283.046,1867.52 283.546,1919.52 285,1971.5C 288.019,1983.18 295.519,1990.02 307.5,1992C 322.589,1994.82 337.256,1993.48 351.5,1988C 357.976,1983.56 361.81,1977.39 363,1969.5C 363.5,1918.17 363.667,1866.83 363.5,1815.5C 381.833,1815.5 400.167,1815.5 418.5,1815.5C 418.667,1868.83 418.5,1922.17 418,1975.5C 413.348,2009.15 394.182,2028.65 360.5,2034C 329.734,2039.68 299.401,2038.01 269.5,2029C 246.572,2019.4 233.405,2002.23 230,1977.5C 229.5,1923.5 229.333,1869.5 229.5,1815.5 Z"/></g>
<g><path style="opacity:0.985" fill="#11110f" d="M 463.5,1815.5 C 485.843,1815.17 508.177,1815.5 530.5,1816.5C 560.866,1867.7 591.033,1919.04 621,1970.5C 621.5,1918.83 621.667,1867.17 621.5,1815.5C 638.5,1815.5 655.5,1815.5 672.5,1815.5C 672.5,1888.17 672.5,1960.83 672.5,2033.5C 650.497,2033.67 628.497,2033.5 606.5,2033C 575.874,1981.58 545.374,1930.08 515,1878.5C 514.5,1930.17 514.333,1981.83 514.5,2033.5C 497.5,2033.5 480.5,2033.5 463.5,2033.5C 463.5,1960.83 463.5,1888.17 463.5,1815.5 Z"/></g>
<g><path style="opacity:0.984" fill="#11110f" d="M 716.5,1815.5 C 754.835,1815.33 793.168,1815.5 831.5,1816C 851.614,1816.59 869.614,1822.93 885.5,1835C 898.794,1849.52 906.294,1866.69 908,1886.5C 911.297,1910.84 911.297,1935.17 908,1959.5C 901.855,2008.36 874.022,2032.86 824.5,2033C 788.502,2033.5 752.502,2033.67 716.5,2033.5C 716.5,1960.83 716.5,1888.17 716.5,1815.5 Z M 771.5,1857.5 C 787.17,1857.33 802.837,1857.5 818.5,1858C 833.769,1858.6 843.936,1866.1 849,1880.5C 855.887,1908.69 856.221,1936.69 850,1964.5C 845.601,1981.57 834.601,1990.57 817,1991.5C 802.042,1991.47 786.875,1991.47 771.5,1991.5C 771.5,1946.83 771.5,1902.17 771.5,1857.5 Z"/></g>
<g><path style="opacity:0.979" fill="#11110f" d="M 948.5,1815.5 C 999.5,1815.5 1050.5,1815.5 1101.5,1815.5C 1101.5,1829.5 1101.5,1843.5 1101.5,1857.5C 1068.83,1857.5 1036.17,1857.5 1003.5,1857.5C 1003.5,1872.5 1003.5,1887.5 1003.5,1902.5C 1030.83,1902.5 1058.17,1902.5 1085.5,1902.5C 1085.5,1916.5 1085.5,1930.5 1085.5,1944.5C 1058.17,1944.5 1030.83,1944.5 1003.5,1944.5C 1003.5,1960.17 1003.5,1975.83 1003.5,1991.5C 1036.83,1991.5 1070.17,1991.5 1103.5,1991.5C 1103.5,2005.5 1103.5,2019.5 1103.5,2033.5C 1051.93,2033.83 1000.43,2033.5 949,2032.5C 948.5,1960.17 948.333,1887.83 948.5,1815.5 Z"/></g>
<g><path style="opacity:0.98" fill="#11110f" d="M 1333.5,1815.5 C 1351.83,1815.5 1370.17,1815.5 1388.5,1815.5C 1388.5,1874.17 1388.5,1932.83 1388.5,1991.5C 1419.5,1991.5 1450.5,1991.5 1481.5,1991.5C 1481.5,2005.5 1481.5,2019.5 1481.5,2033.5C 1432.17,2033.5 1382.83,2033.5 1333.5,2033.5C 1333.5,1960.83 1333.5,1888.17 1333.5,1815.5 Z"/></g>
<g><path style="opacity:0.984" fill="#11110f" d="M 1514.5,1815.5 C 1532.83,1815.5 1551.17,1815.5 1569.5,1815.5C 1569.5,1888.17 1569.5,1960.83 1569.5,2033.5C 1551.17,2033.5 1532.83,2033.5 1514.5,2033.5C 1514.5,1960.83 1514.5,1888.17 1514.5,1815.5 Z"/></g>
<g><path style="opacity:0.981" fill="#11110f" d="M 1893.5,1815.5 C 1917.07,1815.17 1940.57,1815.51 1964,1816.5C 1989.81,1888.76 2015.31,1961.09 2040.5,2033.5C 2022.15,2033.83 2003.82,2033.5 1985.5,2032.5C 1980.5,2017.83 1975.5,2003.17 1970.5,1988.5C 1942.17,1987.5 1913.84,1987.17 1885.5,1987.5C 1881,2002.83 1876,2018 1870.5,2033C 1852.5,2033.5 1834.5,2033.67 1816.5,2033.5C 1841.76,1960.71 1867.43,1888.04 1893.5,1815.5 Z M 1928.5,1852.5 C 1939.27,1883.83 1949.27,1915.49 1958.5,1947.5C 1938.5,1947.5 1918.5,1947.5 1898.5,1947.5C 1908.1,1915.7 1918.1,1884.03 1928.5,1852.5 Z"/></g>
</svg>
