<?xml version="1.0" encoding="UTF-8"?>
<!DOCTYPE svg PUBLIC "-//W3C//DTD SVG 1.1//EN" "http://www.w3.org/Graphics/SVG/1.1/DTD/svg11.dtd">
<svg xmlns="http://www.w3.org/2000/svg" version="1.1" width="1276px" height="1881px" style="shape-rendering:geometricPrecision; text-rendering:geometricPrecision; image-rendering:optimizeQuality; fill-rule:evenodd; clip-rule:evenodd" xmlns:xlink="http://www.w3.org/1999/xlink">
<g><path style="opacity:0.125" fill="#b5a2bc" d="M 739.5,205.5 C 738.686,203.369 738.186,201.036 738,198.5C 737.329,199.252 736.496,199.586 735.5,199.5C 736.254,197.495 737.421,196.828 739,197.5C 739.497,200.146 739.664,202.813 739.5,205.5 Z"/></g>
<g><path style="opacity:1" fill="#401453" d="M 616.5,214.5 C 617.448,219.38 618.781,224.047 620.5,228.5C 623.47,229.308 625.303,231.308 626,234.5C 626.333,234.167 626.667,233.833 627,233.5C 627.708,234.381 628.542,235.047 629.5,235.5C 634.222,242.23 638.555,249.23 642.5,256.5C 642.427,258.027 643.094,259.027 644.5,259.5C 647.916,263.323 650.582,267.657 652.5,272.5C 652.427,274.027 653.094,275.027 654.5,275.5C 656.314,277.764 658.147,280.097 660,282.5C 665.004,276.33 670.504,270.663 676.5,265.5C 677.906,265.027 678.573,264.027 678.5,262.5C 697.159,241.175 716.159,220.175 735.5,199.5C 736.496,199.586 737.329,199.252 738,198.5C 738.186,201.036 738.686,203.369 739.5,205.5C 741.432,232.149 743.099,258.816 744.5,285.5C 744.343,286.873 744.51,288.207 745,289.5C 745.717,288.956 746.217,288.289 746.5,287.5C 756.75,273.914 768.083,261.247 780.5,249.5C 782.749,248.92 784.415,247.587 785.5,245.5C 785.833,244.5 786.5,243.833 787.5,243.5C 789.424,242.04 791.091,242.374 792.5,244.5C 792.167,245.167 791.833,245.833 791.5,246.5C 792.247,246.736 793.08,247.07 794,247.5C 794.495,249.473 794.662,251.473 794.5,253.5C 786.586,280.315 781.253,307.648 778.5,335.5C 671.709,307.513 569.709,319.513 472.5,371.5C 471.167,371.167 469.833,370.833 468.5,370.5C 460.231,347.622 450.564,325.288 439.5,303.5C 439.772,299.081 438.439,295.247 435.5,292C 435.833,291.667 436.167,291.333 436.5,291C 435.183,289.233 433.516,287.899 431.5,287C 433.86,287.672 435.86,286.839 437.5,284.5C 437.833,285.167 438.167,285.833 438.5,286.5C 439.736,285.754 441.07,285.421 442.5,285.5C 458.908,294.241 474.241,304.574 488.5,316.5C 488.783,317.289 489.283,317.956 490,318.5C 490.765,316.934 490.598,315.601 489.5,314.5C 485.034,288.573 481.034,262.573 477.5,236.5C 477.343,235.127 477.51,233.793 478,232.5C 478.415,234.291 479.415,235.624 481,236.5C 482.245,236.539 483.578,236.205 485,235.5C 486.653,235.82 487.653,236.82 488,238.5C 488.805,236.099 489.638,236.266 490.5,239C 491.793,239.49 493.127,239.657 494.5,239.5C 519.833,256.833 545.167,274.167 570.5,291.5C 571.5,294.167 572.5,294.167 573.5,291.5C 583.247,259.425 594.08,227.758 606,196.5C 609.776,202.391 613.276,208.391 616.5,214.5 Z"/></g>
<g><path style="opacity:1" fill="#593169" d="M 616.5,214.5 C 621.222,221.23 625.555,228.23 629.5,235.5C 628.542,235.047 627.708,234.381 627,233.5C 626.667,233.833 626.333,234.167 626,234.5C 625.303,231.308 623.47,229.308 620.5,228.5C 618.781,224.047 617.448,219.38 616.5,214.5 Z"/></g>
<g><path style="opacity:0.027" fill="#e4dde7" d="M 477.5,227.5 C 476.662,227.842 476.328,228.508 476.5,229.5C 475.224,228.614 475.224,227.614 476.5,226.5C 477.107,226.624 477.44,226.957 477.5,227.5 Z"/></g>
<g><path style="opacity:1" fill="#5e386e" d="M 477.5,227.5 C 483.38,231.267 489.046,235.267 494.5,239.5C 493.127,239.657 491.793,239.49 490.5,239C 489.638,236.266 488.805,236.099 488,238.5C 487.653,236.82 486.653,235.82 485,235.5C 483.578,236.205 482.245,236.539 481,236.5C 479.415,235.624 478.415,234.291 478,232.5C 477.51,233.793 477.343,235.127 477.5,236.5C 476.532,234.393 476.198,232.059 476.5,229.5C 476.328,228.508 476.662,227.842 477.5,227.5 Z"/></g>
<g><path style="opacity:1" fill="#866791" d="M 802.5,233.5 C 802.158,232.662 801.492,232.328 800.5,232.5C 801.322,230.272 802.655,229.605 804.5,230.5C 804.058,231.739 803.391,232.739 802.5,233.5 Z"/></g>
<g><path style="opacity:1" fill="#522a64" d="M 800.5,232.5 C 801.492,232.328 802.158,232.662 802.5,233.5C 800.009,240.322 797.342,246.989 794.5,253.5C 794.662,251.473 794.495,249.473 794,247.5C 793.08,247.07 792.247,246.736 791.5,246.5C 791.833,245.833 792.167,245.167 792.5,244.5C 791.091,242.374 789.424,242.04 787.5,243.5C 791.237,239.131 795.57,235.465 800.5,232.5 Z"/></g>
<g><path style="opacity:0.969" fill="#8e7098" d="M 785.5,245.5 C 784.415,247.587 782.749,248.92 780.5,249.5C 781.585,247.413 783.251,246.08 785.5,245.5 Z"/></g>
<g><path style="opacity:0.529" fill="#a68fad" d="M 642.5,256.5 C 643.906,256.973 644.573,257.973 644.5,259.5C 643.094,259.027 642.427,258.027 642.5,256.5 Z"/></g>
<g><path style="opacity:0.969" fill="#a288aa" d="M 678.5,262.5 C 678.573,264.027 677.906,265.027 676.5,265.5C 676.427,263.973 677.094,262.973 678.5,262.5 Z"/></g>
<g><path style="opacity:0.541" fill="#a58fae" d="M 652.5,272.5 C 653.906,272.973 654.573,273.973 654.5,275.5C 653.094,275.027 652.427,274.027 652.5,272.5 Z"/></g>
<g><path style="opacity:1" fill="#532b64" d="M 442.5,285.5 C 441.07,285.421 439.736,285.754 438.5,286.5C 438.167,285.833 437.833,285.167 437.5,284.5C 435.86,286.839 433.86,287.672 431.5,287C 433.516,287.899 435.183,289.233 436.5,291C 436.167,291.333 435.833,291.667 435.5,292C 438.439,295.247 439.772,299.081 439.5,303.5C 433.596,293.377 426.93,283.711 419.5,274.5C 419.833,274.167 420.167,273.833 420.5,273.5C 428.216,277.02 435.549,281.02 442.5,285.5 Z"/></g>
<g><path style="opacity:0.122" fill="#d4cad9" d="M 744.5,285.5 C 745.167,286.167 745.833,286.833 746.5,287.5C 746.217,288.289 745.717,288.956 745,289.5C 744.51,288.207 744.343,286.873 744.5,285.5 Z"/></g>
<g><path style="opacity:0.655" fill="#a992b1" d="M 570.5,291.5 C 571.5,292.833 572.5,292.833 573.5,291.5C 572.5,294.167 571.5,294.167 570.5,291.5 Z"/></g>
<g><path style="opacity:0.027" fill="#dbd2dd" d="M 489.5,314.5 C 490.598,315.601 490.765,316.934 490,318.5C 489.283,317.956 488.783,317.289 488.5,316.5C 489.338,316.158 489.672,315.492 489.5,314.5 Z"/></g>
<g><path style="opacity:1" fill="#3f1152" d="M 762.5,393.5 C 762.369,394.376 762.702,395.043 763.5,395.5C 764.776,394.386 764.776,393.386 763.5,392.5C 762.562,380.418 759.896,368.751 755.5,357.5C 755.5,356.5 755.5,355.5 755.5,354.5C 756.5,354.5 757.5,354.5 758.5,354.5C 787.513,360.849 814.513,371.849 839.5,387.5C 840.072,389.255 840.906,390.922 842,392.5C 842.333,391.833 842.667,391.167 843,390.5C 844.049,392.107 845.549,392.773 847.5,392.5C 856.038,397.862 863.871,404.195 871,411.5C 873.082,425.407 876.248,439.074 880.5,452.5C 879.81,456.925 880.81,460.759 883.5,464C 882.033,465.098 881.199,466.598 881,468.5C 880,465.833 879,465.833 878,468.5C 874.778,467.689 871.612,466.689 868.5,465.5C 868.5,464.5 868.5,463.5 868.5,462.5C 867.5,462.5 866.5,462.5 865.5,462.5C 865.66,460.801 865.494,459.134 865,457.5C 863.578,457.406 862.078,457.072 860.5,456.5C 861.376,455.749 862.376,455.249 863.5,455C 861.693,453.764 859.693,453.43 857.5,454C 856.26,451.527 854.593,451.027 852.5,452.5C 846.299,449.235 840.632,445.235 835.5,440.5C 835.027,439.094 834.027,438.427 832.5,438.5C 832.027,437.094 831.027,436.427 829.5,436.5C 829.027,435.094 828.027,434.427 826.5,434.5C 826.027,433.094 825.027,432.427 823.5,432.5C 821.566,431.89 819.899,430.89 818.5,429.5C 818.027,428.094 817.027,427.427 815.5,427.5C 806.855,423.178 798.189,418.844 789.5,414.5C 788.157,427.544 784.49,439.877 778.5,451.5C 775.992,452.588 773.992,451.922 772.5,449.5C 772.027,448.094 771.027,447.427 769.5,447.5C 765.779,445.646 762.446,443.313 759.5,440.5C 759.027,439.094 758.027,438.427 756.5,438.5C 756.027,437.094 755.027,436.427 753.5,436.5C 752.29,436.068 751.29,435.401 750.5,434.5C 750.027,433.094 749.027,432.427 747.5,432.5C 731.659,422.074 714.992,412.908 697.5,405C 655.338,409.089 617.338,423.755 583.5,449C 582.167,450.333 580.833,451.667 579.5,453C 585.342,458.011 591.009,463.177 596.5,468.5C 579.214,474.802 563.88,484.135 550.5,496.5C 549.167,496.5 547.833,496.5 546.5,496.5C 546.5,497.833 546.5,499.167 546.5,500.5C 543.856,503.48 541.189,506.48 538.5,509.5C 547.519,511.28 556.519,512.947 565.5,514.5C 566.209,515.404 567.209,515.737 568.5,515.5C 568.216,517.415 568.549,519.081 569.5,520.5C 572.684,540.033 582.351,555.533 598.5,567C 610.701,575.928 624.368,581.261 639.5,583C 661.006,583.673 682.506,583.506 704,582.5C 723.257,582.511 742.091,585.011 760.5,590C 743.132,569.632 724.132,550.965 703.5,534C 699.531,533.147 695.531,532.481 691.5,532C 656.965,536.634 625.632,528.967 597.5,509C 615.727,491.386 637.394,481.052 662.5,478C 669.389,480.017 676.056,482.517 682.5,485.5C 682.351,486.552 682.517,487.552 683,488.5C 683.333,488.167 683.667,487.833 684,487.5C 685.167,488.667 686.333,489.833 687.5,491C 687.167,491.333 686.833,491.667 686.5,492C 688.112,492.72 689.612,492.554 691,491.5C 691.928,493.335 693.094,493.668 694.5,492.5C 695.696,492.846 695.696,493.346 694.5,494C 698.163,494.845 701.163,496.678 703.5,499.5C 704.696,499.154 704.696,498.654 703.5,498C 704.094,497.536 704.761,497.369 705.5,497.5C 710.357,499.514 714.857,502.181 719,505.5C 725.047,499.281 732.213,494.948 740.5,492.5C 743.152,492.59 745.485,491.924 747.5,490.5C 747.833,490.5 748.167,490.5 748.5,490.5C 749.376,490.369 750.043,490.702 750.5,491.5C 748.914,493.173 748.247,495.173 748.5,497.5C 742.624,506.174 740.624,515.674 742.5,526C 761.389,544.054 779.389,562.888 796.5,582.5C 812.935,575.603 830.101,572.269 848,572.5C 864.018,572.595 879.518,575.095 894.5,580C 890.915,576.922 887.915,573.422 885.5,569.5C 884.424,564.094 881.09,561.094 875.5,560.5C 864.499,551.001 853.332,541.668 842,532.5C 839.396,526.954 836.563,521.621 833.5,516.5C 833.5,514.833 833.5,513.167 833.5,511.5C 832.5,511.5 831.5,511.5 830.5,511.5C 831.111,508.279 832.278,505.279 834,502.5C 834.333,503.833 834.667,505.167 835,506.5C 835.816,505.177 836.983,504.511 838.5,504.5C 843.45,506.98 848.116,509.98 852.5,513.5C 859.559,505.633 868.226,500.3 878.5,497.5C 888.452,505.404 893.619,515.737 894,528.5C 890.799,532.036 887.299,535.203 883.5,538C 886.039,540.37 888.372,542.87 890.5,545.5C 890.427,547.027 891.094,548.027 892.5,548.5C 899.496,554.662 905.996,561.329 912,568.5C 913.334,561.157 914.667,553.823 916,546.5C 947.075,588.986 969.908,635.653 984.5,686.5C 985.724,689.485 985.391,692.151 983.5,694.5C 984.167,694.833 984.833,695.167 985.5,695.5C 984.515,697.098 984.349,698.765 985,700.5C 986.733,698.042 987.9,698.375 988.5,701.5C 1003.58,769.831 999.918,837.164 977.5,903.5C 975.694,904.735 974.027,906.069 972.5,907.5C 963.529,897.526 954.529,887.526 945.5,877.5C 945.585,876.005 944.919,875.005 943.5,874.5C 942.526,876.743 942.192,879.076 942.5,881.5C 941.232,896.779 938.565,911.779 934.5,926.5C 933.691,927.469 932.691,928.302 931.5,929C 932.337,930.011 932.67,931.178 932.5,932.5C 923.524,965.804 909.191,996.47 889.5,1024.5C 888.85,1024.2 888.183,1023.86 887.5,1023.5C 886.304,1023.85 886.304,1024.35 887.5,1025C 886.049,1024.74 884.716,1024.9 883.5,1025.5C 884.282,1027.33 883.616,1028.83 881.5,1030C 882.337,1031.01 882.67,1032.18 882.5,1033.5C 874.59,1044.75 865.59,1055.08 855.5,1064.5C 854.85,1064.2 854.183,1063.86 853.5,1063.5C 852.41,1064.73 851.076,1065.56 849.5,1066C 850.337,1067.01 850.67,1068.18 850.5,1069.5C 835.147,1083.68 818.814,1096.68 801.5,1108.5C 798.877,1101.34 796.877,1094.01 795.5,1086.5C 795.433,1084.6 795.767,1082.77 796.5,1081C 796.252,1079.25 795.252,1078.42 793.5,1078.5C 792.232,1076.09 791.565,1073.43 791.5,1070.5C 791.662,1068.47 791.495,1066.47 791,1064.5C 790.617,1063.94 790.117,1063.61 789.5,1063.5C 788.968,1061.37 788.135,1059.37 787,1057.5C 715.034,1107.28 635.867,1124.45 549.5,1109C 526.149,1103.72 504.149,1095.22 483.5,1083.5C 482.699,1081.96 482.366,1080.29 482.5,1078.5C 490.489,1040.07 495.156,1001.24 496.5,962C 495.909,937.258 493.243,912.758 488.5,888.5C 488.357,886.738 488.691,885.071 489.5,883.5C 488.218,883.912 487.218,883.246 486.5,881.5C 485.127,875.669 483.293,870.002 481,864.5C 464.329,890.854 445.496,915.521 424.5,938.5C 424.217,937.711 423.717,937.044 423,936.5C 421.245,939.044 419.245,941.377 417,943.5C 416.517,944.448 416.351,945.448 416.5,946.5C 415.178,946.67 414.011,946.337 413,945.5C 412.383,946.449 412.549,947.282 413.5,948C 412.833,948.333 412.167,948.667 411.5,949C 412.416,949.278 413.082,949.778 413.5,950.5C 412.833,951.833 411.833,952.833 410.5,953.5C 407.949,952.051 405.615,952.385 403.5,954.5C 404.025,955.192 404.692,955.692 405.5,956C 404.62,957.356 404.286,958.856 404.5,960.5C 399.875,964.824 395.208,969.157 390.5,973.5C 385.5,971.833 383.833,973.5 385.5,978.5C 380.162,983 374.662,987.333 369,991.5C 367.295,989.423 366.128,987.09 365.5,984.5C 366.416,981.723 365.749,979.223 363.5,977C 364.361,974.679 363.361,973.513 360.5,973.5C 360.843,971.517 360.176,970.183 358.5,969.5C 349.069,945.44 342.902,920.44 340,894.5C 333.78,845.501 334.614,796.834 342.5,748.5C 321.618,755.303 300.618,761.636 279.5,767.5C 278.508,767.672 277.842,767.338 277.5,766.5C 277.534,750.693 279.867,735.36 284.5,720.5C 286.04,718.162 286.706,715.495 286.5,712.5C 297.376,670.762 314.71,632.096 338.5,596.5C 339.906,596.027 340.573,595.027 340.5,593.5C 345.231,585.929 350.564,578.762 356.5,572C 342.779,569.713 329.112,567.213 315.5,564.5C 327.863,538.401 343.196,514.401 361.5,492.5C 362.906,492.027 363.573,491.027 363.5,489.5C 363.833,488.5 364.5,487.833 365.5,487.5C 366.906,487.027 367.573,486.027 367.5,484.5C 374.159,476.508 381.159,468.841 388.5,461.5C 390.094,461.08 391.594,460.414 393,459.5C 394.412,460.923 395.579,460.756 396.5,459C 395.167,457.667 395.167,456.333 396.5,455C 398.746,453.961 400.913,452.794 403,451.5C 404.131,452.604 404.965,452.271 405.5,450.5C 404.754,449.264 404.421,447.93 404.5,446.5C 405.167,445.167 406.167,444.167 407.5,443.5C 409.749,442.92 411.415,441.587 412.5,439.5C 413.5,437.833 414.833,436.5 416.5,435.5C 419.291,434.957 421.958,434.957 424.5,435.5C 427.232,433.638 428.232,431.305 427.5,428.5C 430.293,427.772 432.293,426.105 433.5,423.5C 434.522,423.855 435.189,424.522 435.5,425.5C 425.958,453.996 429.124,480.996 445,506.5C 450.443,513.782 456.943,519.782 464.5,524.5C 465.527,525.848 466.86,526.348 468.5,526C 467.956,525.283 467.289,524.783 466.5,524.5C 452.14,498.297 449.307,470.964 458,442.5C 470.359,418.978 489.525,410.645 515.5,417.5C 516.358,420.295 518.358,420.962 521.5,419.5C 528.619,421.643 535.119,424.976 541,429.5C 532.931,407.608 517.431,393.941 494.5,388.5C 493.167,387.833 491.833,387.167 490.5,386.5C 556.863,352.882 627.196,339.048 701.5,345C 706.814,346.155 711.814,348.155 716.5,351C 733.884,362.882 749.218,377.049 762.5,393.5 Z M 797.5,617.5 C 797.973,618.906 798.973,619.573 800.5,619.5C 813.127,629.07 826.96,636.736 842,642.5C 842.833,659.51 842.666,676.51 841.5,693.5C 836.16,697.512 831.16,701.845 826.5,706.5C 822.949,708.111 819.949,710.444 817.5,713.5C 807.224,720.313 796.89,727.146 786.5,734C 778.419,738.707 770.086,742.874 761.5,746.5C 758.603,747.129 755.936,748.129 753.5,749.5C 748.516,750.608 743.516,751.608 738.5,752.5C 734.774,752.823 731.107,752.489 727.5,751.5C 725.645,747.109 723.311,743.109 720.5,739.5C 709.241,717.15 697.574,694.983 685.5,673C 698.79,662.528 712.456,652.695 726.5,643.5C 731.429,641.225 736.096,638.559 740.5,635.5C 757.04,626.487 774.54,619.82 793,615.5C 794.585,616.044 796.085,616.711 797.5,617.5 Z M 911.5,744.5 C 910.833,744.167 910.167,743.833 909.5,743.5C 904.904,732.628 898.571,722.961 890.5,714.5C 890.573,712.973 889.906,711.973 888.5,711.5C 886.833,709.167 884.833,707.167 882.5,705.5C 882.573,703.973 881.906,702.973 880.5,702.5C 878.539,700.037 876.372,697.703 874,695.5C 872.905,678.176 872.572,660.842 873,643.5C 879.443,639.032 885.943,634.699 892.5,630.5C 895.06,628.727 897.393,626.727 899.5,624.5C 902.436,622.745 905.269,620.745 908,618.5C 923.146,652.628 926.813,687.962 919,724.5C 916.984,731.384 914.484,738.051 911.5,744.5 Z M 844.5,866.5 C 843.833,860.833 843.167,855.167 842.5,849.5C 842.368,836.347 840.368,823.513 836.5,811C 819.181,825.413 799.348,835.58 777,841.5C 776.167,841.167 775.333,840.833 774.5,840.5C 766.726,825.28 758.726,810.28 750.5,795.5C 751.448,794.022 752.781,793.022 754.5,792.5C 766.175,790.218 777.175,786.051 787.5,780C 803.379,770.561 818.379,759.895 832.5,748C 845.493,747.033 858.493,746.7 871.5,747C 880.222,757.943 886.722,770.109 891,783.5C 887.426,817.994 871.926,845.661 844.5,866.5 Z"/></g>
<g><path style="opacity:0.996" fill="#9c82a7" d="M 758.5,354.5 C 757.5,354.5 756.5,354.5 755.5,354.5C 755.5,355.5 755.5,356.5 755.5,357.5C 752.323,352.179 753.323,351.179 758.5,354.5 Z"/></g>
<g><path style="opacity:1" fill="#866791" d="M 468.5,370.5 C 469.833,370.833 471.167,371.167 472.5,371.5C 470.202,374.347 468.869,374.013 468.5,370.5 Z"/></g>
<g><path style="opacity:0.118" fill="#c3b3c9" d="M 490.5,386.5 C 491.833,387.167 493.167,387.833 494.5,388.5C 492.712,388.785 491.045,388.452 489.5,387.5C 489.624,386.893 489.957,386.56 490.5,386.5 Z"/></g>
<g><path style="opacity:1" fill="#6b4779" d="M 839.5,387.5 C 842.511,388.669 845.178,390.336 847.5,392.5C 845.549,392.773 844.049,392.107 843,390.5C 842.667,391.167 842.333,391.833 842,392.5C 840.906,390.922 840.072,389.255 839.5,387.5 Z"/></g>
<g><path style="opacity:0.541" fill="#9d85a8" d="M 763.5,392.5 C 764.776,393.386 764.776,394.386 763.5,395.5C 762.702,395.043 762.369,394.376 762.5,393.5C 763.167,393.5 763.5,393.167 763.5,392.5 Z"/></g>
<g><path style="opacity:1" fill="#7c5c88" d="M 515.5,417.5 C 517.698,417.875 519.698,418.542 521.5,419.5C 518.358,420.962 516.358,420.295 515.5,417.5 Z"/></g>
<g><path style="opacity:0.655" fill="#9e86a6" d="M 815.5,427.5 C 817.027,427.427 818.027,428.094 818.5,429.5C 816.973,429.573 815.973,428.906 815.5,427.5 Z"/></g>
<g><path style="opacity:1" fill="#572f67" d="M 435.5,425.5 C 435.189,424.522 434.522,423.855 433.5,423.5C 432.293,426.105 430.293,427.772 427.5,428.5C 428.232,431.305 427.232,433.638 424.5,435.5C 421.958,434.957 419.291,434.957 416.5,435.5C 422.644,430.197 428.978,425.031 435.5,420C 436.759,419.018 438.092,418.685 439.5,419C 438.267,421.314 436.933,423.481 435.5,425.5 Z"/></g>
<g><path style="opacity:0.647" fill="#9f89a9" d="M 747.5,432.5 C 749.027,432.427 750.027,433.094 750.5,434.5C 748.973,434.573 747.973,433.906 747.5,432.5 Z"/></g>
<g><path style="opacity:0.655" fill="#9d87a8" d="M 823.5,432.5 C 825.027,432.427 826.027,433.094 826.5,434.5C 824.973,434.573 823.973,433.906 823.5,432.5 Z"/></g>
<g><path style="opacity:0.655" fill="#9f88a8" d="M 826.5,434.5 C 828.027,434.427 829.027,435.094 829.5,436.5C 827.973,436.573 826.973,435.906 826.5,434.5 Z"/></g>
<g><path style="opacity:0.647" fill="#a48dad" d="M 753.5,436.5 C 755.027,436.427 756.027,437.094 756.5,438.5C 754.973,438.573 753.973,437.906 753.5,436.5 Z"/></g>
<g><path style="opacity:0.663" fill="#9f87a9" d="M 829.5,436.5 C 831.027,436.427 832.027,437.094 832.5,438.5C 830.973,438.573 829.973,437.906 829.5,436.5 Z"/></g>
<g><path style="opacity:0.655" fill="#9f88a9" d="M 756.5,438.5 C 758.027,438.427 759.027,439.094 759.5,440.5C 757.973,440.573 756.973,439.906 756.5,438.5 Z"/></g>
<g><path style="opacity:0.655" fill="#a088a9" d="M 832.5,438.5 C 834.027,438.427 835.027,439.094 835.5,440.5C 833.973,440.573 832.973,439.906 832.5,438.5 Z"/></g>
<g><path style="opacity:1" fill="#805f8c" d="M 412.5,439.5 C 411.415,441.587 409.749,442.92 407.5,443.5C 408.585,441.413 410.251,440.08 412.5,439.5 Z"/></g>
<g><path style="opacity:0.765" fill="#9982a4" d="M 769.5,447.5 C 771.027,447.427 772.027,448.094 772.5,449.5C 770.973,449.573 769.973,448.906 769.5,447.5 Z"/></g>
<g><path style="opacity:1" fill="#552d66" d="M 404.5,446.5 C 404.421,447.93 404.754,449.264 405.5,450.5C 404.965,452.271 404.131,452.604 403,451.5C 400.913,452.794 398.746,453.961 396.5,455C 395.167,456.333 395.167,457.667 396.5,459C 395.579,460.756 394.412,460.923 393,459.5C 391.594,460.414 390.094,461.08 388.5,461.5C 393.204,455.795 398.537,450.795 404.5,446.5 Z"/></g>
<g><path style="opacity:1" fill="#583169" d="M 868.5,465.5 C 862.76,461.635 857.427,457.302 852.5,452.5C 854.593,451.027 856.26,451.527 857.5,454C 859.693,453.43 861.693,453.764 863.5,455C 862.376,455.249 861.376,455.749 860.5,456.5C 862.078,457.072 863.578,457.406 865,457.5C 865.494,459.134 865.66,460.801 865.5,462.5C 866.5,462.5 867.5,462.5 868.5,462.5C 868.5,463.5 868.5,464.5 868.5,465.5 Z"/></g>
<g><path style="opacity:1" fill="#502761" d="M 880.5,452.5 C 884.541,461.611 888.208,470.945 891.5,480.5C 891.539,481.756 891.039,482.756 890,483.5C 889.082,481.624 887.582,480.624 885.5,480.5C 879.605,475.725 873.938,470.725 868.5,465.5C 871.612,466.689 874.778,467.689 878,468.5C 879,465.833 880,465.833 881,468.5C 881.199,466.598 882.033,465.098 883.5,464C 880.81,460.759 879.81,456.925 880.5,452.5 Z"/></g>
<g><path style="opacity:1" fill="#775584" d="M 885.5,480.5 C 887.582,480.624 889.082,481.624 890,483.5C 891.039,482.756 891.539,481.756 891.5,480.5C 893.562,483.518 894.728,486.852 895,490.5C 891.629,487.297 888.462,483.964 885.5,480.5 Z"/></g>
<g><path style="opacity:0.969" fill="#a18aab" d="M 367.5,484.5 C 367.573,486.027 366.906,487.027 365.5,487.5C 365.427,485.973 366.094,484.973 367.5,484.5 Z"/></g>
<g><path style="opacity:0.969" fill="#9a81a4" d="M 363.5,489.5 C 363.573,491.027 362.906,492.027 361.5,492.5C 361.427,490.973 362.094,489.973 363.5,489.5 Z"/></g>
<g><path style="opacity:1" fill="#59326a" d="M 682.5,485.5 C 690.647,488.739 698.314,492.739 705.5,497.5C 704.761,497.369 704.094,497.536 703.5,498C 704.696,498.654 704.696,499.154 703.5,499.5C 701.163,496.678 698.163,494.845 694.5,494C 695.696,493.346 695.696,492.846 694.5,492.5C 693.094,493.668 691.928,493.335 691,491.5C 689.612,492.554 688.112,492.72 686.5,492C 686.833,491.667 687.167,491.333 687.5,491C 686.333,489.833 685.167,488.667 684,487.5C 683.667,487.833 683.333,488.167 683,488.5C 682.517,487.552 682.351,486.552 682.5,485.5 Z"/></g>
<g><path style="opacity:1" fill="#7e5d8a" d="M 747.5,490.5 C 745.485,491.924 743.152,492.59 740.5,492.5C 742.515,491.076 744.848,490.41 747.5,490.5 Z"/></g>
<g><path style="opacity:1" fill="#6d4a7c" d="M 748.5,490.5 C 750.364,489.207 752.364,489.207 754.5,490.5C 752.448,492.878 750.448,495.211 748.5,497.5C 748.247,495.173 748.914,493.173 750.5,491.5C 750.043,490.702 749.376,490.369 748.5,490.5 Z"/></g>
<g><path style="opacity:1" fill="#886992" d="M 550.5,496.5 C 549.5,498.167 548.167,499.5 546.5,500.5C 546.5,499.167 546.5,497.833 546.5,496.5C 547.833,496.5 549.167,496.5 550.5,496.5 Z"/></g>
<g><path style="opacity:1" fill="#522963" d="M 838.5,504.5 C 836.983,504.511 835.816,505.177 835,506.5C 834.667,505.167 834.333,503.833 834,502.5C 832.278,505.279 831.111,508.279 830.5,511.5C 831.5,511.5 832.5,511.5 833.5,511.5C 833.5,513.167 833.5,514.833 833.5,516.5C 827.888,509.209 822.222,501.876 816.5,494.5C 816.833,494.167 817.167,493.833 817.5,493.5C 825.003,496.416 832.003,500.083 838.5,504.5 Z"/></g>
<g><path style="opacity:0.535" fill="#9e86a7" d="M 565.5,514.5 C 566.833,514.5 568.167,514.5 569.5,514.5C 569.5,516.5 569.5,518.5 569.5,520.5C 568.549,519.081 568.216,517.415 568.5,515.5C 567.209,515.737 566.209,515.404 565.5,514.5 Z"/></g>
<g><path style="opacity:0.004" fill="#c7bacd" d="M 464.5,524.5 C 465.167,524.5 465.833,524.5 466.5,524.5C 467.289,524.783 467.956,525.283 468.5,526C 466.86,526.348 465.527,525.848 464.5,524.5 Z"/></g>
<g><path style="opacity:0.965" fill="#a18aaa" d="M 890.5,545.5 C 891.906,545.973 892.573,546.973 892.5,548.5C 891.094,548.027 890.427,547.027 890.5,545.5 Z"/></g>
<g><path style="opacity:1" fill="#5d376e" d="M 875.5,560.5 C 881.09,561.094 884.424,564.094 885.5,569.5C 881.544,567.212 878.211,564.212 875.5,560.5 Z"/></g>
<g><path style="opacity:0.663" fill="#9f87aa" d="M 340.5,593.5 C 340.573,595.027 339.906,596.027 338.5,596.5C 338.427,594.973 339.094,593.973 340.5,593.5 Z"/></g>
<g><path style="opacity:0.769" fill="#9a82a4" d="M 797.5,617.5 C 799.027,617.427 800.027,618.094 800.5,619.5C 798.973,619.573 797.973,618.906 797.5,617.5 Z"/></g>
<g><path style="opacity:1" fill="#6c487a" d="M 899.5,624.5 C 897.393,626.727 895.06,628.727 892.5,630.5C 892.351,629.448 892.517,628.448 893,627.5C 894.709,625.825 896.376,624.158 898,622.5C 898.717,623.044 899.217,623.711 899.5,624.5 Z"/></g>
<g><path style="opacity:1" fill="#5e386e" d="M 740.5,635.5 C 736.096,638.559 731.429,641.225 726.5,643.5C 726.971,642.099 727.638,640.766 728.5,639.5C 729.086,639.709 729.586,640.043 730,640.5C 730.219,639.062 730.719,637.729 731.5,636.5C 733.426,635.939 735.426,635.773 737.5,636C 735.941,635.02 734.274,634.187 732.5,633.5C 732.667,633.167 732.833,632.833 733,632.5C 735.619,633.281 738.119,634.281 740.5,635.5 Z"/></g>
<g><path style="opacity:1" fill="#603a6f" d="M 984.5,686.5 C 986.591,691.191 987.924,696.191 988.5,701.5C 987.9,698.375 986.733,698.042 985,700.5C 984.349,698.765 984.515,697.098 985.5,695.5C 984.833,695.167 984.167,694.833 983.5,694.5C 985.391,692.151 985.724,689.485 984.5,686.5 Z"/></g>
<g><path style="opacity:0.969" fill="#9f85a9" d="M 880.5,702.5 C 881.906,702.973 882.573,703.973 882.5,705.5C 881.094,705.027 880.427,704.027 880.5,702.5 Z"/></g>
<g><path style="opacity:1" fill="#6b487a" d="M 826.5,706.5 C 826.047,707.458 825.381,708.292 824.5,709C 824.833,709.333 825.167,709.667 825.5,710C 822.495,710.533 819.828,711.7 817.5,713.5C 819.949,710.444 822.949,708.111 826.5,706.5 Z"/></g>
<g><path style="opacity:0.969" fill="#a288ac" d="M 888.5,711.5 C 889.906,711.973 890.573,712.973 890.5,714.5C 889.094,714.027 888.427,713.027 888.5,711.5 Z"/></g>
<g><path style="opacity:1" fill="#7f608b" d="M 286.5,712.5 C 286.706,715.495 286.04,718.162 284.5,720.5C 284.565,717.572 285.232,714.905 286.5,712.5 Z"/></g>
<g><path style="opacity:0.769" fill="#b29cb7" d="M 909.5,743.5 C 910.167,743.833 910.833,744.167 911.5,744.5C 910.699,746.793 910.032,746.46 909.5,743.5 Z"/></g>
<g><path style="opacity:1" fill="#7d5c88" d="M 761.5,746.5 C 759.383,748.655 756.716,749.655 753.5,749.5C 755.936,748.129 758.603,747.129 761.5,746.5 Z"/></g>
<g><path style="opacity:1" fill="#552d67" d="M 720.5,739.5 C 723.311,743.109 725.645,747.109 727.5,751.5C 731.107,752.489 734.774,752.823 738.5,752.5C 734.776,752.984 731.11,753.984 727.5,755.5C 723.969,753.773 722.636,751.107 723.5,747.5C 722.397,747.002 721.397,746.669 720.5,746.5C 719.723,744.284 719.723,741.951 720.5,739.5 Z"/></g>
<g><path style="opacity:0.004" fill="#fdfff8" d="M 274.5,756.5 C 275.833,757.167 275.833,757.167 274.5,756.5 Z"/></g>
<g><path style="opacity:0.204" fill="#bfafc5" d="M 277.5,766.5 C 277.842,767.338 278.508,767.672 279.5,767.5C 278.614,768.776 277.614,768.776 276.5,767.5C 276.624,766.893 276.957,766.56 277.5,766.5 Z"/></g>
<g><path style="opacity:0.541" fill="#bbabc0" d="M 754.5,792.5 C 752.781,793.022 751.448,794.022 750.5,795.5C 749.596,794.791 749.263,793.791 749.5,792.5C 751.167,792.5 752.833,792.5 754.5,792.5 Z"/></g>
<g><path style="opacity:0.529" fill="#b19eb9" d="M 842.5,849.5 C 843.167,855.167 843.833,860.833 844.5,866.5C 844.44,867.043 844.107,867.376 843.5,867.5C 842.504,861.537 842.171,855.537 842.5,849.5 Z"/></g>
<g><path style="opacity:0.969" fill="#9d85a6" d="M 945.5,877.5 C 944.883,877.389 944.383,877.056 944,876.5C 943.802,878.382 943.302,880.048 942.5,881.5C 942.192,879.076 942.526,876.743 943.5,874.5C 944.919,875.005 945.585,876.005 945.5,877.5 Z"/></g>
<g><path style="opacity:1" fill="#7b5b88" d="M 486.5,881.5 C 487.218,883.246 488.218,883.912 489.5,883.5C 488.691,885.071 488.357,886.738 488.5,888.5C 487.388,886.401 486.721,884.067 486.5,881.5 Z"/></g>
<g><path style="opacity:1" fill="#7b5a88" d="M 977.5,903.5 C 977.357,906.097 976.523,908.431 975,910.5C 973.955,909.627 973.122,908.627 972.5,907.5C 974.027,906.069 975.694,904.735 977.5,903.5 Z"/></g>
<g><path style="opacity:1" fill="#81628d" d="M 934.5,926.5 C 934.405,928.786 933.738,930.786 932.5,932.5C 932.67,931.178 932.337,930.011 931.5,929C 932.691,928.302 933.691,927.469 934.5,926.5 Z"/></g>
<g><path style="opacity:1" fill="#603970" d="M 424.5,938.5 C 421.542,943.126 417.876,947.126 413.5,950.5C 413.082,949.778 412.416,949.278 411.5,949C 412.167,948.667 412.833,948.333 413.5,948C 412.549,947.282 412.383,946.449 413,945.5C 414.011,946.337 415.178,946.67 416.5,946.5C 416.351,945.448 416.517,944.448 417,943.5C 419.245,941.377 421.245,939.044 423,936.5C 423.717,937.044 424.217,937.711 424.5,938.5 Z"/></g>
<g><path style="opacity:1" fill="#5d366d" d="M 410.5,953.5 C 409.219,956.447 407.219,958.781 404.5,960.5C 404.286,958.856 404.62,957.356 405.5,956C 404.692,955.692 404.025,955.192 403.5,954.5C 405.615,952.385 407.949,952.051 410.5,953.5 Z"/></g>
<g><path style="opacity:1" fill="#6b4779" d="M 390.5,973.5 C 389.167,975.5 387.5,977.167 385.5,978.5C 383.833,973.5 385.5,971.833 390.5,973.5 Z"/></g>
<g><path style="opacity:1" fill="#603a6f" d="M 358.5,969.5 C 360.176,970.183 360.843,971.517 360.5,973.5C 363.361,973.513 364.361,974.679 363.5,977C 365.749,979.223 366.416,981.723 365.5,984.5C 362.384,979.93 360.05,974.93 358.5,969.5 Z"/></g>
<g><path style="opacity:1" fill="#603a70" d="M 889.5,1024.5 C 887.518,1027.81 885.185,1030.81 882.5,1033.5C 882.67,1032.18 882.337,1031.01 881.5,1030C 883.616,1028.83 884.282,1027.33 883.5,1025.5C 884.716,1024.9 886.049,1024.74 887.5,1025C 886.304,1024.35 886.304,1023.85 887.5,1023.5C 888.183,1023.86 888.85,1024.2 889.5,1024.5 Z"/></g>
<g><path style="opacity:1" fill="#7c5c88" d="M 789.5,1063.5 C 790.117,1063.61 790.617,1063.94 791,1064.5C 791.495,1066.47 791.662,1068.47 791.5,1070.5C 790.388,1068.4 789.721,1066.07 789.5,1063.5 Z"/></g>
<g><path style="opacity:1" fill="#735181" d="M 855.5,1064.5 C 854.167,1066.5 852.5,1068.17 850.5,1069.5C 850.67,1068.18 850.337,1067.01 849.5,1066C 851.076,1065.56 852.41,1064.73 853.5,1063.5C 854.183,1063.86 854.85,1064.2 855.5,1064.5 Z"/></g>
<g><path style="opacity:1" fill="#6d4a7b" d="M 793.5,1078.5 C 795.252,1078.42 796.252,1079.25 796.5,1081C 795.767,1082.77 795.433,1084.6 795.5,1086.5C 794.232,1084.09 793.565,1081.43 793.5,1078.5 Z"/></g>
<g><path style="opacity:0.855" fill="#a089a9" d="M 482.5,1078.5 C 482.366,1080.29 482.699,1081.96 483.5,1083.5C 482.351,1083.21 481.684,1082.38 481.5,1081C 481.528,1079.93 481.861,1079.1 482.5,1078.5 Z"/></g>
<g><path style="opacity:1" fill="#401252" d="M 197.5,1194.5 C 222.502,1194.33 247.502,1194.5 272.5,1195C 315.843,1201.51 336.676,1226.68 335,1270.5C 328.9,1310.09 305.734,1330.42 265.5,1331.5C 255.833,1331.5 246.167,1331.5 236.5,1331.5C 236.5,1353.5 236.5,1375.5 236.5,1397.5C 223.5,1397.5 210.5,1397.5 197.5,1397.5C 197.5,1329.83 197.5,1262.17 197.5,1194.5 Z M 287.5,1243.5 C 289.186,1246.87 290.853,1250.21 292.5,1253.5C 296.018,1276.47 286.351,1289.63 263.5,1293C 254.84,1293.5 246.173,1293.67 237.5,1293.5C 237.5,1273.17 237.5,1252.83 237.5,1232.5C 248.211,1232.19 258.878,1232.69 269.5,1234C 276.53,1235.35 282.53,1238.51 287.5,1243.5 Z"/></g>
<g><path style="opacity:0.529" fill="#9d88a9" d="M 197.5,1194.5 C 197.5,1262.17 197.5,1329.83 197.5,1397.5C 210.5,1397.5 223.5,1397.5 236.5,1397.5C 236.5,1397.83 236.5,1398.17 236.5,1398.5C 223.167,1398.5 209.833,1398.5 196.5,1398.5C 196.167,1330.33 196.501,1262.33 197.5,1194.5 Z"/></g>
<g><path style="opacity:1" fill="#431755" d="M 793.5,1212.5 C 794.906,1212.03 795.573,1211.03 795.5,1209.5C 801.629,1201.79 809.629,1198.96 819.5,1201C 832.775,1205.37 838.608,1214.54 837,1228.5C 832.419,1242.88 822.585,1248.72 807.5,1246C 794.477,1241.47 788.977,1232.3 791,1218.5C 791.24,1216.15 792.073,1214.15 793.5,1212.5 Z"/></g>
<g><path style="opacity:0.529" fill="#a58eae" d="M 795.5,1209.5 C 795.573,1211.03 794.906,1212.03 793.5,1212.5C 793.427,1210.97 794.094,1209.97 795.5,1209.5 Z"/></g>
<g><path style="opacity:1" fill="#724f80" d="M 287.5,1243.5 C 289.09,1243.63 290.423,1244.29 291.5,1245.5C 292.393,1248.08 292.726,1250.75 292.5,1253.5C 290.853,1250.21 289.186,1246.87 287.5,1243.5 Z"/></g>
<g><path style="opacity:1" fill="#411454" d="M 566.5,1340.5 C 565.596,1341.21 565.263,1342.21 565.5,1343.5C 532.996,1343.17 500.662,1343.5 468.5,1344.5C 472.555,1356.72 480.889,1364.22 493.5,1367C 510.681,1369.66 525.348,1364.83 537.5,1352.5C 540.854,1355.19 543.854,1358.19 546.5,1361.5C 546.427,1363.03 547.094,1364.03 548.5,1364.5C 552.631,1368.13 556.631,1371.96 560.5,1376C 541.311,1396.62 517.644,1404.95 489.5,1401C 451.091,1393.76 431.091,1370.59 429.5,1331.5C 431.367,1292.47 451.367,1268.97 489.5,1261C 538.146,1258.97 564.146,1282.31 567.5,1331C 567.344,1334.2 567.011,1337.37 566.5,1340.5 Z M 495.5,1293.5 C 512.194,1292.83 523.527,1300.16 529.5,1315.5C 509.511,1316.5 489.511,1316.83 469.5,1316.5C 470.895,1309.89 474.228,1304.39 479.5,1300C 484.566,1296.93 489.9,1294.76 495.5,1293.5 Z"/></g>
<g><path style="opacity:1" fill="#3f1252" d="M 761.5,1272.5 C 761.427,1274.03 762.094,1275.03 763.5,1275.5C 772.53,1284.91 776.863,1296.24 776.5,1309.5C 776.5,1338.83 776.5,1368.17 776.5,1397.5C 764.167,1397.5 751.833,1397.5 739.5,1397.5C 739.667,1370.5 739.5,1343.5 739,1316.5C 738.677,1310.35 736.51,1305.02 732.5,1300.5C 732.027,1299.09 731.027,1298.43 729.5,1298.5C 719.825,1294.82 710.991,1296.15 703,1302.5C 701.139,1304.89 699.806,1307.55 699,1310.5C 697.541,1339.46 697.041,1368.46 697.5,1397.5C 685.167,1397.5 672.833,1397.5 660.5,1397.5C 660.831,1369 660.498,1340.66 659.5,1312.5C 653.203,1296.45 642.203,1292.28 626.5,1300C 623.469,1302.56 621.302,1305.73 620,1309.5C 618.532,1338.78 618.032,1368.12 618.5,1397.5C 606.167,1397.5 593.833,1397.5 581.5,1397.5C 581.5,1353.17 581.5,1308.83 581.5,1264.5C 592.581,1264.19 603.581,1264.52 614.5,1265.5C 615.35,1270.23 616.516,1274.9 618,1279.5C 625.022,1266.48 636.022,1260.15 651,1260.5C 667.168,1260.58 679.835,1267.25 689,1280.5C 702.564,1262.42 720.397,1256.26 742.5,1262C 749.763,1263.96 756.096,1267.46 761.5,1272.5 Z"/></g>
<g><path style="opacity:1" fill="#411453" d="M 982.5,1343.5 C 949.833,1343.5 917.167,1343.5 884.5,1343.5C 884.263,1344.79 884.596,1345.79 885.5,1346.5C 886.833,1349.17 888.167,1351.83 889.5,1354.5C 890.265,1357.1 890.599,1359.76 890.5,1362.5C 891.822,1362.67 892.989,1362.34 894,1361.5C 895.574,1362.98 896.907,1364.65 898,1366.5C 898.816,1365.18 899.983,1364.51 901.5,1364.5C 921.335,1371.21 938.668,1367.21 953.5,1352.5C 959.521,1357.85 965.188,1363.52 970.5,1369.5C 970.662,1372.66 971.996,1375.16 974.5,1377C 973.551,1377.62 972.718,1377.45 972,1376.5C 970.331,1378.17 969.498,1380.17 969.5,1382.5C 968.833,1383.83 967.833,1384.83 966.5,1385.5C 964.856,1385.29 963.356,1385.62 962,1386.5C 961.667,1385.83 961.333,1385.17 961,1384.5C 960.417,1386 959.584,1387.33 958.5,1388.5C 957.808,1387.97 957.308,1387.31 957,1386.5C 955.698,1389.62 953.865,1392.28 951.5,1394.5C 945.007,1397.94 938.007,1400.11 930.5,1401C 907.222,1404.52 886.555,1399.02 868.5,1384.5C 868.5,1379.83 866.167,1377.5 861.5,1377.5C 846.264,1357 842.097,1334.33 849,1309.5C 850.729,1303.71 853.229,1298.38 856.5,1293.5C 857.906,1293.03 858.573,1292.03 858.5,1290.5C 859.906,1290.03 860.573,1289.03 860.5,1287.5C 874.621,1269.44 893.288,1260.44 916.5,1260.5C 952.031,1261.86 973.865,1279.86 982,1314.5C 983.693,1324.16 983.86,1333.83 982.5,1343.5 Z M 941.5,1306.5 C 943.805,1309.41 945.138,1312.74 945.5,1316.5C 925.489,1316.83 905.489,1316.5 885.5,1315.5C 891.721,1299.71 903.388,1292.55 920.5,1294C 929.393,1295.11 936.393,1299.28 941.5,1306.5 Z"/></g>
<g><path style="opacity:1" fill="#3f1252" d="M 427.5,1263.5 C 427.828,1275.68 427.495,1287.68 426.5,1299.5C 415.943,1297.3 405.943,1298.64 396.5,1303.5C 394.253,1303.08 392.087,1303.08 390,1303.5C 389.333,1304.83 388.667,1306.17 388,1307.5C 386.982,1306.29 386.482,1306.63 386.5,1308.5C 386.818,1309.65 387.484,1310.48 388.5,1311C 387.833,1311.33 387.167,1311.67 386.5,1312C 387.252,1312.67 387.586,1313.5 387.5,1314.5C 386.241,1318.05 385.407,1321.71 385,1325.5C 384.5,1349.5 384.333,1373.5 384.5,1397.5C 372.167,1397.5 359.833,1397.5 347.5,1397.5C 347.5,1353.17 347.5,1308.83 347.5,1264.5C 358.167,1264.5 368.833,1264.5 379.5,1264.5C 380.694,1269.94 382.194,1275.28 384,1280.5C 394.46,1264.95 408.96,1259.28 427.5,1263.5 Z"/></g>
<g><path style="opacity:0.129" fill="#d0c3d4" d="M 580.5,1264.5 C 585.99,1263.83 591.657,1263.5 597.5,1263.5C 603.542,1263.5 609.208,1264.17 614.5,1265.5C 603.581,1264.52 592.581,1264.19 581.5,1264.5C 581.167,1264.5 580.833,1264.5 580.5,1264.5 Z"/></g>
<g><path style="opacity:1" fill="#3e1151" d="M 1077.5,1263.5 C 1077.83,1275.68 1077.5,1287.68 1076.5,1299.5C 1068.41,1297.9 1060.41,1298.24 1052.5,1300.5C 1048.26,1298.78 1045.26,1300.12 1043.5,1304.5C 1042.91,1304.29 1042.41,1303.96 1042,1303.5C 1040.68,1305.25 1040.18,1307.25 1040.5,1309.5C 1040.07,1310.71 1039.4,1311.71 1038.5,1312.5C 1036.43,1313.37 1034.43,1314.54 1032.5,1316C 1036.1,1315.39 1036.43,1316.55 1033.5,1319.5C 1034.37,1321.75 1034.71,1324.08 1034.5,1326.5C 1034.5,1350.17 1034.5,1373.83 1034.5,1397.5C 1022.17,1397.5 1009.83,1397.5 997.5,1397.5C 997.5,1353.17 997.5,1308.83 997.5,1264.5C 1008.17,1264.5 1018.83,1264.5 1029.5,1264.5C 1031.12,1269.26 1032.12,1274.26 1032.5,1279.5C 1032.28,1280.68 1032.61,1281.68 1033.5,1282.5C 1034.3,1282.04 1034.63,1281.38 1034.5,1280.5C 1044.66,1264.88 1058.99,1259.21 1077.5,1263.5 Z"/></g>
<g><path style="opacity:1" fill="#3f1152" d="M 794.5,1264.5 C 806.833,1264.5 819.167,1264.5 831.5,1264.5C 831.5,1308.83 831.5,1353.17 831.5,1397.5C 819.167,1397.5 806.833,1397.5 794.5,1397.5C 794.5,1353.17 794.5,1308.83 794.5,1264.5 Z"/></g>
<g><path style="opacity:0.122" fill="#c8b9cd" d="M 379.5,1264.5 C 368.833,1264.5 358.167,1264.5 347.5,1264.5C 347.5,1308.83 347.5,1353.17 347.5,1397.5C 359.833,1397.5 372.167,1397.5 384.5,1397.5C 372.011,1398.5 359.344,1398.83 346.5,1398.5C 346.5,1353.5 346.5,1308.5 346.5,1263.5C 357.679,1263.17 368.679,1263.51 379.5,1264.5 Z"/></g>
<g><path style="opacity:0.529" fill="#9d88a9" d="M 580.5,1264.5 C 580.833,1264.5 581.167,1264.5 581.5,1264.5C 581.5,1308.83 581.5,1353.17 581.5,1397.5C 593.833,1397.5 606.167,1397.5 618.5,1397.5C 606.011,1398.5 593.344,1398.83 580.5,1398.5C 580.5,1353.83 580.5,1309.17 580.5,1264.5 Z"/></g>
<g><path style="opacity:0.541" fill="#a690ae" d="M 794.5,1264.5 C 806.989,1263.5 819.656,1263.17 832.5,1263.5C 832.5,1308.5 832.5,1353.5 832.5,1398.5C 819.656,1398.83 806.989,1398.5 794.5,1397.5C 806.833,1397.5 819.167,1397.5 831.5,1397.5C 831.5,1353.17 831.5,1308.83 831.5,1264.5C 819.167,1264.5 806.833,1264.5 794.5,1264.5 Z"/></g>
<g><path style="opacity:0.122" fill="#d1c5d5" d="M 427.5,1263.5 C 428.825,1275.67 428.825,1288.01 427.5,1300.5C 426.893,1300.38 426.56,1300.04 426.5,1299.5C 427.495,1287.68 427.828,1275.68 427.5,1263.5 Z"/></g>
<g><path style="opacity:0.129" fill="#c7b9cc" d="M 1029.5,1264.5 C 1018.83,1264.5 1008.17,1264.5 997.5,1264.5C 997.5,1308.83 997.5,1353.17 997.5,1397.5C 1009.83,1397.5 1022.17,1397.5 1034.5,1397.5C 1022.01,1398.5 1009.34,1398.83 996.5,1398.5C 996.5,1353.5 996.5,1308.5 996.5,1263.5C 1007.68,1263.17 1018.68,1263.51 1029.5,1264.5 Z"/></g>
<g><path style="opacity:0.129" fill="#d0c4d4" d="M 1077.5,1263.5 C 1078.82,1275.67 1078.82,1288.01 1077.5,1300.5C 1076.89,1300.38 1076.56,1300.04 1076.5,1299.5C 1077.5,1287.68 1077.83,1275.68 1077.5,1263.5 Z"/></g>
<g><path style="opacity:0.969" fill="#9e87aa" d="M 761.5,1272.5 C 762.906,1272.97 763.573,1273.97 763.5,1275.5C 762.094,1275.03 761.427,1274.03 761.5,1272.5 Z"/></g>
<g><path style="opacity:0.541" fill="#ae99b7" d="M 1032.5,1279.5 C 1033.17,1279.83 1033.83,1280.17 1034.5,1280.5C 1034.63,1281.38 1034.3,1282.04 1033.5,1282.5C 1032.61,1281.68 1032.28,1280.68 1032.5,1279.5 Z"/></g>
<g><path style="opacity:0.663" fill="#a089aa" d="M 860.5,1287.5 C 860.573,1289.03 859.906,1290.03 858.5,1290.5C 858.427,1288.97 859.094,1287.97 860.5,1287.5 Z"/></g>
<g><path style="opacity:0.663" fill="#a087a9" d="M 858.5,1290.5 C 858.573,1292.03 857.906,1293.03 856.5,1293.5C 856.427,1291.97 857.094,1290.97 858.5,1290.5 Z"/></g>
<g><path style="opacity:0.769" fill="#9c85a7" d="M 729.5,1298.5 C 731.027,1298.43 732.027,1299.09 732.5,1300.5C 730.973,1300.57 729.973,1299.91 729.5,1298.5 Z"/></g>
<g><path style="opacity:1" fill="#5e386d" d="M 396.5,1303.5 C 393.122,1306.88 390.122,1310.54 387.5,1314.5C 387.586,1313.5 387.252,1312.67 386.5,1312C 387.167,1311.67 387.833,1311.33 388.5,1311C 387.484,1310.48 386.818,1309.65 386.5,1308.5C 386.482,1306.63 386.982,1306.29 388,1307.5C 388.667,1306.17 389.333,1304.83 390,1303.5C 392.087,1303.08 394.253,1303.08 396.5,1303.5 Z"/></g>
<g><path style="opacity:1" fill="#6b4779" d="M 1052.5,1300.5 C 1047.98,1302.67 1043.98,1305.67 1040.5,1309.5C 1040.18,1307.25 1040.68,1305.25 1042,1303.5C 1042.41,1303.96 1042.91,1304.29 1043.5,1304.5C 1045.26,1300.12 1048.26,1298.78 1052.5,1300.5 Z"/></g>
<g><path style="opacity:1" fill="#6d4a7b" d="M 941.5,1306.5 C 942.978,1308.24 944.644,1309.07 946.5,1309C 945.397,1310.68 945.73,1312.18 947.5,1313.5C 947.058,1314.74 946.391,1315.74 945.5,1316.5C 945.138,1312.74 943.805,1309.41 941.5,1306.5 Z"/></g>
<g><path style="opacity:1" fill="#5e386e" d="M 1038.5,1312.5 C 1036.92,1317.21 1035.59,1321.88 1034.5,1326.5C 1034.71,1324.08 1034.37,1321.75 1033.5,1319.5C 1036.43,1316.55 1036.1,1315.39 1032.5,1316C 1034.43,1314.54 1036.43,1313.37 1038.5,1312.5 Z"/></g>
<g><path style="opacity:0.129" fill="#cfc2d3" d="M 265.5,1331.5 C 256.348,1332.49 247.015,1332.83 237.5,1332.5C 237.831,1354.67 237.497,1376.67 236.5,1398.5C 236.5,1398.17 236.5,1397.83 236.5,1397.5C 236.5,1375.5 236.5,1353.5 236.5,1331.5C 246.167,1331.5 255.833,1331.5 265.5,1331.5 Z"/></g>
<g><path style="opacity:0.122" fill="#cec1d3" d="M 566.5,1340.5 C 566.5,1341.83 566.5,1343.17 566.5,1344.5C 533.833,1344.5 501.167,1344.5 468.5,1344.5C 500.662,1343.5 532.996,1343.17 565.5,1343.5C 565.263,1342.21 565.596,1341.21 566.5,1340.5 Z"/></g>
<g><path style="opacity:0.122" fill="#cfc2d3" d="M 982.5,1343.5 C 949.987,1343.84 917.654,1344.84 885.5,1346.5C 884.596,1345.79 884.263,1344.79 884.5,1343.5C 917.167,1343.5 949.833,1343.5 982.5,1343.5 Z"/></g>
<g><path style="opacity:0.969" fill="#9e87a8" d="M 546.5,1361.5 C 547.906,1361.97 548.573,1362.97 548.5,1364.5C 547.094,1364.03 546.427,1363.03 546.5,1361.5 Z"/></g>
<g><path style="opacity:1" fill="#613b70" d="M 889.5,1354.5 C 893.208,1358.21 897.208,1361.54 901.5,1364.5C 899.983,1364.51 898.816,1365.18 898,1366.5C 896.907,1364.65 895.574,1362.98 894,1361.5C 892.989,1362.34 891.822,1362.67 890.5,1362.5C 890.599,1359.76 890.265,1357.1 889.5,1354.5 Z"/></g>
<g><path style="opacity:1" fill="#724f7f" d="M 970.5,1369.5 C 978.312,1374.27 977.979,1378.6 969.5,1382.5C 969.498,1380.17 970.331,1378.17 972,1376.5C 972.718,1377.45 973.551,1377.62 974.5,1377C 971.996,1375.16 970.662,1372.66 970.5,1369.5 Z"/></g>
<g><path style="opacity:1" fill="#6d497b" d="M 861.5,1377.5 C 866.167,1377.5 868.5,1379.83 868.5,1384.5C 865.833,1382.5 863.5,1380.17 861.5,1377.5 Z"/></g>
<g><path style="opacity:1" fill="#603a70" d="M 966.5,1385.5 C 962.005,1389.25 957.005,1392.25 951.5,1394.5C 953.865,1392.28 955.698,1389.62 957,1386.5C 957.308,1387.31 957.808,1387.97 958.5,1388.5C 959.584,1387.33 960.417,1386 961,1384.5C 961.333,1385.17 961.667,1385.83 962,1386.5C 963.356,1385.62 964.856,1385.29 966.5,1385.5 Z"/></g>
<g><path style="opacity:0.529" fill="#b19db9" d="M 659.5,1312.5 C 660.498,1340.66 660.831,1369 660.5,1397.5C 672.833,1397.5 685.167,1397.5 697.5,1397.5C 685.011,1398.5 672.344,1398.83 659.5,1398.5C 659.5,1369.83 659.5,1341.17 659.5,1312.5 Z"/></g>
<g><path style="opacity:0.529" fill="#b39fba" d="M 776.5,1309.5 C 777.498,1339 777.831,1368.66 777.5,1398.5C 764.656,1398.83 751.989,1398.5 739.5,1397.5C 751.833,1397.5 764.167,1397.5 776.5,1397.5C 776.5,1368.17 776.5,1338.83 776.5,1309.5 Z"/></g>
<g><path style="opacity:1" fill="#3d0f51" d="M 197.5,1419.5 C 210.5,1419.5 223.5,1419.5 236.5,1419.5C 236.5,1473.17 236.5,1526.83 236.5,1580.5C 265.167,1580.5 293.833,1580.5 322.5,1580.5C 322.5,1592.5 322.5,1604.5 322.5,1616.5C 280.833,1616.5 239.167,1616.5 197.5,1616.5C 197.5,1550.83 197.5,1485.17 197.5,1419.5 Z"/></g>
<g><path style="opacity:1" fill="#411454" d="M 466.5,1562.5 C 433.833,1562.5 401.167,1562.5 368.5,1562.5C 368.263,1563.79 368.596,1564.79 369.5,1565.5C 376.89,1581.7 389.556,1588.87 407.5,1587C 418.316,1585.42 427.649,1580.92 435.5,1573.5C 436.5,1573.5 437.5,1573.5 438.5,1573.5C 438.5,1574.5 438.5,1575.5 438.5,1576.5C 440.216,1576.63 441.883,1576.96 443.5,1577.5C 443.427,1579.03 444.094,1580.03 445.5,1580.5C 450.812,1585.15 455.812,1590.15 460.5,1595.5C 444.887,1612.55 425.387,1621.22 402,1621.5C 375.577,1621.62 354.91,1610.96 340,1589.5C 337.597,1585.37 335.763,1581.03 334.5,1576.5C 334.665,1573.48 334.498,1570.48 334,1567.5C 333.667,1567.83 333.333,1568.17 333,1568.5C 332.722,1567.58 332.222,1566.92 331.5,1566.5C 325.986,1535.38 335.652,1510.22 360.5,1491C 362.886,1489.81 365.22,1488.64 367.5,1487.5C 368.492,1487.67 369.158,1487.34 369.5,1486.5C 394.116,1475.77 417.783,1477.6 440.5,1492C 462.277,1510.48 470.943,1533.98 466.5,1562.5 Z M 429.5,1533.5 C 419.856,1534.83 409.856,1535.5 399.5,1535.5C 389.328,1535.5 379.328,1535.17 369.5,1534.5C 370.234,1533.29 370.567,1531.96 370.5,1530.5C 372.58,1527.36 374.914,1524.36 377.5,1521.5C 386.238,1514.32 396.238,1511.82 407.5,1514C 418.342,1516.58 425.676,1523.08 429.5,1533.5 Z"/></g>
<g><path style="opacity:1" fill="#401353" d="M 585.5,1498.5 C 586.548,1500.93 587.214,1500.93 587.5,1498.5C 588.183,1493.77 589.183,1489.1 590.5,1484.5C 601.48,1483.5 612.48,1483.17 623.5,1483.5C 623.5,1528.17 623.5,1572.83 623.5,1617.5C 612.48,1617.83 601.48,1617.5 590.5,1616.5C 588.988,1611.94 587.988,1607.27 587.5,1602.5C 585.692,1600.89 583.692,1600.56 581.5,1601.5C 580.289,1602.72 580.289,1603.89 581.5,1605C 580.377,1606.04 579.044,1606.71 577.5,1607C 578.337,1608.01 578.67,1609.18 578.5,1610.5C 557.809,1624.21 536.476,1625.04 514.5,1613C 483.418,1591.76 472.918,1562.93 483,1526.5C 498.319,1491.75 524.819,1477.25 562.5,1483C 572.31,1485.22 579.977,1490.39 585.5,1498.5 Z M 578.5,1573.5 C 576.5,1574.83 574.833,1576.5 573.5,1578.5C 555.205,1588.69 539.038,1586.03 525,1570.5C 517.604,1558.58 516.77,1546.24 522.5,1533.5C 524.58,1530.36 526.914,1527.36 529.5,1524.5C 547.443,1511.48 564.277,1512.81 580,1528.5C 590.231,1543.89 589.731,1558.89 578.5,1573.5 Z"/></g>
<g><path style="opacity:1" fill="#411454" d="M 1077.5,1562.5 C 1044.83,1562.5 1012.17,1562.5 979.5,1562.5C 979.263,1563.79 979.596,1564.79 980.5,1565.5C 981.801,1568.1 983.134,1570.77 984.5,1573.5C 984.427,1575.03 985.094,1576.03 986.5,1576.5C 1008.53,1592.15 1029.36,1590.48 1049,1571.5C 1057.05,1579.05 1064.55,1587.05 1071.5,1595.5C 1056.05,1612.94 1036.55,1621.61 1013,1621.5C 991.381,1621.6 973.214,1613.93 958.5,1598.5C 957.464,1596.61 957.464,1594.78 958.5,1593C 957.167,1592.67 955.833,1592.33 954.5,1592C 954.957,1591.59 955.291,1591.09 955.5,1590.5C 953.297,1588.7 952.131,1586.37 952,1583.5C 950.989,1584.34 949.822,1584.67 948.5,1584.5C 939.365,1562.6 939.199,1540.6 948,1518.5C 950.029,1514.42 952.529,1510.75 955.5,1507.5C 956.906,1507.03 957.573,1506.03 957.5,1504.5C 973.875,1485.87 994.542,1477.7 1019.5,1480C 1052.97,1485.47 1072.47,1504.97 1078,1538.5C 1078.8,1546.58 1078.63,1554.58 1077.5,1562.5 Z M 1040.5,1533.5 C 1020.86,1535.49 1000.86,1536.15 980.5,1535.5C 985.223,1520.71 995.389,1513.38 1011,1513.5C 1025.34,1513.69 1035.17,1520.36 1040.5,1533.5 Z"/></g>
<g><path style="opacity:1" fill="#411454" d="M 742.5,1498.5 C 742.56,1499.04 742.893,1499.38 743.5,1499.5C 744.386,1498.68 744.719,1497.68 744.5,1496.5C 745.167,1492.17 745.833,1487.83 746.5,1483.5C 757.833,1483.5 769.167,1483.5 780.5,1483.5C 780.667,1529.83 780.5,1576.17 780,1622.5C 776.037,1653.47 758.87,1672.97 728.5,1681C 704.389,1686.28 681.389,1683.28 659.5,1672C 654.689,1669.02 650.356,1665.52 646.5,1661.5C 645.473,1659.82 644.473,1658.15 643.5,1656.5C 646.025,1652.1 649.025,1648.1 652.5,1644.5C 653.906,1644.03 654.573,1643.03 654.5,1641.5C 656.738,1636.93 659.738,1632.93 663.5,1629.5C 667.906,1633.25 672.573,1636.58 677.5,1639.5C 677.821,1641.05 678.821,1641.71 680.5,1641.5C 697.733,1649.72 714.733,1649.22 731.5,1640C 733.37,1637.96 735.37,1636.13 737.5,1634.5C 738.906,1634.03 739.573,1633.03 739.5,1631.5C 742.62,1623.45 743.786,1615.11 743,1606.5C 726.869,1620.62 708.369,1624.79 687.5,1619C 655.134,1607.82 638.134,1584.99 636.5,1550.5C 639.088,1513.42 658.421,1490.58 694.5,1482C 707.549,1479.87 719.882,1481.87 731.5,1488C 735.668,1491 739.335,1494.5 742.5,1498.5 Z M 684.5,1573.5 C 684.573,1571.97 683.906,1570.97 682.5,1570.5C 676.73,1560.87 675.064,1550.53 677.5,1539.5C 680.34,1532.51 684.673,1526.51 690.5,1521.5C 709.791,1511.12 726.291,1514.45 740,1531.5C 749.911,1553.03 744.744,1569.87 724.5,1582C 709.347,1587.38 696.013,1584.54 684.5,1573.5 Z"/></g>
<g><path style="opacity:1" fill="#411554" d="M 847.5,1619.5 C 845.485,1618.08 843.152,1617.41 840.5,1617.5C 820.756,1612.26 807.589,1599.92 801,1580.5C 799.524,1575.59 798.524,1570.59 798,1565.5C 797.5,1538.17 797.333,1510.84 797.5,1483.5C 810.167,1483.5 822.833,1483.5 835.5,1483.5C 835.044,1510.88 835.544,1538.21 837,1565.5C 840.763,1578.39 849.429,1584.73 863,1584.5C 880.236,1583.26 889.569,1573.93 891,1556.5C 891.5,1532.17 891.667,1507.84 891.5,1483.5C 904.167,1483.5 916.833,1483.5 929.5,1483.5C 929.667,1508.84 929.5,1534.17 929,1559.5C 925.148,1599.35 903.148,1620.02 863,1621.5C 857.728,1621.28 852.561,1620.61 847.5,1619.5 Z"/></g>
<g><path style="opacity:0.529" fill="#cabecf" d="M 369.5,1486.5 C 369.158,1487.34 368.492,1487.67 367.5,1487.5C 368.006,1485.89 368.673,1485.56 369.5,1486.5 Z"/></g>
<g><path style="opacity:0.004" fill="#d2c6d5" d="M 585.5,1498.5 C 586.167,1498.5 586.833,1498.5 587.5,1498.5C 587.214,1500.93 586.548,1500.93 585.5,1498.5 Z"/></g>
<g><path style="opacity:0.769" fill="#aa94b3" d="M 744.5,1496.5 C 744.719,1497.68 744.386,1498.68 743.5,1499.5C 742.893,1499.38 742.56,1499.04 742.5,1498.5C 743.167,1497.83 743.833,1497.17 744.5,1496.5 Z"/></g>
<g><path style="opacity:0.969" fill="#9c81a4" d="M 957.5,1504.5 C 957.573,1506.03 956.906,1507.03 955.5,1507.5C 955.427,1505.97 956.094,1504.97 957.5,1504.5 Z"/></g>
<g><path style="opacity:1" fill="#643e73" d="M 377.5,1521.5 C 374.914,1524.36 372.58,1527.36 370.5,1530.5C 370.338,1528.47 370.505,1526.47 371,1524.5C 372.979,1523.29 374.479,1521.62 375.5,1519.5C 376.182,1520.24 376.849,1520.91 377.5,1521.5 Z"/></g>
<g><path style="opacity:1" fill="#633e72" d="M 529.5,1524.5 C 526.914,1527.36 524.58,1530.36 522.5,1533.5C 521.048,1530.21 522.048,1527.71 525.5,1526C 524.476,1524.63 524.976,1523.8 527,1523.5C 527.902,1523.74 528.735,1524.08 529.5,1524.5 Z"/></g>
<g><path style="opacity:1" fill="#633e73" d="M 690.5,1521.5 C 684.673,1526.51 680.34,1532.51 677.5,1539.5C 676.823,1536.17 676.823,1533.01 677.5,1530C 678.676,1528.09 679.676,1528.25 680.5,1530.5C 681.97,1525.36 685.303,1522.36 690.5,1521.5 Z"/></g>
<g><path style="opacity:0.922" fill="#6f4b7d" d="M 429.5,1533.5 C 430.404,1534.21 430.737,1535.21 430.5,1536.5C 409.823,1536.83 389.156,1536.5 368.5,1535.5C 368.624,1534.89 368.957,1534.56 369.5,1534.5C 379.328,1535.17 389.328,1535.5 399.5,1535.5C 409.856,1535.5 419.856,1534.83 429.5,1533.5 Z"/></g>
<g><path style="opacity:0.922" fill="#724d7f" d="M 1040.5,1533.5 C 1041.4,1534.21 1041.74,1535.21 1041.5,1536.5C 1020.99,1536.83 1000.66,1536.5 980.5,1535.5C 1000.86,1536.15 1020.86,1535.49 1040.5,1533.5 Z"/></g>
<g><path style="opacity:0.529" fill="#9f87a9" d="M 466.5,1562.5 C 433.987,1562.84 401.654,1563.84 369.5,1565.5C 368.596,1564.79 368.263,1563.79 368.5,1562.5C 401.167,1562.5 433.833,1562.5 466.5,1562.5 Z"/></g>
<g><path style="opacity:0.529" fill="#9e86a8" d="M 1077.5,1562.5 C 1044.99,1562.84 1012.65,1563.84 980.5,1565.5C 979.596,1564.79 979.263,1563.79 979.5,1562.5C 1012.17,1562.5 1044.83,1562.5 1077.5,1562.5 Z"/></g>
<g><path style="opacity:1" fill="#6d4a7c" d="M 331.5,1566.5 C 332.222,1566.92 332.722,1567.58 333,1568.5C 333.333,1568.17 333.667,1567.83 334,1567.5C 334.498,1570.48 334.665,1573.48 334.5,1576.5C 332.899,1573.45 331.899,1570.12 331.5,1566.5 Z"/></g>
<g><path style="opacity:0.969" fill="#987da1" d="M 682.5,1570.5 C 683.906,1570.97 684.573,1571.97 684.5,1573.5C 683.094,1573.03 682.427,1572.03 682.5,1570.5 Z"/></g>
<g><path style="opacity:1" fill="#82628e" d="M 443.5,1577.5 C 441.883,1576.96 440.216,1576.63 438.5,1576.5C 438.5,1575.5 438.5,1574.5 438.5,1573.5C 437.5,1573.5 436.5,1573.5 435.5,1573.5C 435.811,1572.52 436.478,1571.86 437.5,1571.5C 439.854,1573.19 441.854,1575.19 443.5,1577.5 Z"/></g>
<g><path style="opacity:0.965" fill="#9b81a2" d="M 984.5,1573.5 C 985.906,1573.97 986.573,1574.97 986.5,1576.5C 985.094,1576.03 984.427,1575.03 984.5,1573.5 Z"/></g>
<g><path style="opacity:1" fill="#82638f" d="M 578.5,1573.5 C 577.833,1576.17 576.167,1577.83 573.5,1578.5C 574.833,1576.5 576.5,1574.83 578.5,1573.5 Z"/></g>
<g><path style="opacity:0.965" fill="#9f86aa" d="M 443.5,1577.5 C 444.906,1577.97 445.573,1578.97 445.5,1580.5C 444.094,1580.03 443.427,1579.03 443.5,1577.5 Z"/></g>
<g><path style="opacity:0.922" fill="#8e729a" d="M 236.5,1419.5 C 237.499,1472.66 237.832,1526 237.5,1579.5C 266.005,1579.17 294.338,1579.5 322.5,1580.5C 293.833,1580.5 265.167,1580.5 236.5,1580.5C 236.5,1526.83 236.5,1473.17 236.5,1419.5 Z"/></g>
<g><path style="opacity:1" fill="#603a6f" d="M 958.5,1598.5 C 954.688,1594.22 951.355,1589.56 948.5,1584.5C 949.822,1584.67 950.989,1584.34 952,1583.5C 952.131,1586.37 953.297,1588.7 955.5,1590.5C 955.291,1591.09 954.957,1591.59 954.5,1592C 955.833,1592.33 957.167,1592.67 958.5,1593C 957.464,1594.78 957.464,1596.61 958.5,1598.5 Z"/></g>
<g><path style="opacity:1" fill="#623c71" d="M 587.5,1602.5 C 584.5,1605.17 581.5,1607.83 578.5,1610.5C 578.67,1609.18 578.337,1608.01 577.5,1607C 579.044,1606.71 580.377,1606.04 581.5,1605C 580.289,1603.89 580.289,1602.72 581.5,1601.5C 583.692,1600.56 585.692,1600.89 587.5,1602.5 Z"/></g>
<g><path style="opacity:0.922" fill="#91749b" d="M 197.5,1419.5 C 197.5,1485.17 197.5,1550.83 197.5,1616.5C 239.167,1616.5 280.833,1616.5 322.5,1616.5C 280.67,1617.5 238.67,1617.83 196.5,1617.5C 196.168,1551.33 196.501,1485.33 197.5,1419.5 Z"/></g>
<g><path style="opacity:0.918" fill="#8c7097" d="M 840.5,1617.5 C 843.152,1617.41 845.485,1618.08 847.5,1619.5C 844.848,1619.59 842.515,1618.92 840.5,1617.5 Z"/></g>
<g><path style="opacity:0.655" fill="#9e86a8" d="M 739.5,1631.5 C 739.573,1633.03 738.906,1634.03 737.5,1634.5C 737.427,1632.97 738.094,1631.97 739.5,1631.5 Z"/></g>
<g><path style="opacity:1" fill="#9c82a6" d="M 677.5,1639.5 C 678.71,1639.93 679.71,1640.6 680.5,1641.5C 678.821,1641.71 677.821,1641.05 677.5,1639.5 Z"/></g>
<g><path style="opacity:0.769" fill="#9b82a4" d="M 654.5,1641.5 C 654.573,1643.03 653.906,1644.03 652.5,1644.5C 652.427,1642.97 653.094,1641.97 654.5,1641.5 Z"/></g>
<g><path style="opacity:0.969" fill="#92769d" d="M 643.5,1656.5 C 644.473,1658.15 645.473,1659.82 646.5,1661.5C 643.179,1660.9 642.179,1659.24 643.5,1656.5 Z"/></g>
</svg>
