<?xml version="1.0" encoding="UTF-8"?>
<!DOCTYPE svg PUBLIC "-//W3C//DTD SVG 1.1//EN" "http://www.w3.org/Graphics/SVG/1.1/DTD/svg11.dtd">
<svg xmlns="http://www.w3.org/2000/svg" version="1.1" width="2525px" height="2377px" style="shape-rendering:geometricPrecision; text-rendering:geometricPrecision; image-rendering:optimizeQuality; fill-rule:evenodd; clip-rule:evenodd" xmlns:xlink="http://www.w3.org/1999/xlink">
<g><path style="opacity:0.998" fill="#257fc2" d="M 505.5,-0.5 C 509.833,-0.5 514.167,-0.5 518.5,-0.5C 557.074,3.35941 592.074,16.6927 623.5,39.5C 575.554,15.7861 527.887,15.9528 480.5,40C 448.233,58.6077 424.733,85.1077 410,119.5C 388.558,168.465 381.558,219.465 389,272.5C 396.928,326.218 412.595,377.551 436,426.5C 446.783,449.232 457.949,471.732 469.5,494C 431.574,549.683 401.408,609.516 379,673.5C 285.929,941.948 206.763,1214.45 141.5,1491C 342.914,1665.83 552.58,1829.83 770.5,1983C 772.063,1983.76 773.063,1984.93 773.5,1986.5C 701.166,1986.67 628.833,1986.5 556.5,1986C 460.69,1914.2 366.024,1840.86 272.5,1766C 180.75,1691.09 89.7505,1615.25 -0.5,1538.5C -0.5,1536.83 -0.5,1535.17 -0.5,1533.5C 37.9288,1367.12 80.7622,1201.79 128,1037.5C 150.269,1035.52 172.769,1034.85 195.5,1035.5C 219.677,950.967 245.677,866.967 273.5,783.5C 251.5,782.833 229.5,782.167 207.5,781.5C 231.31,703.89 263.81,630.224 305,560.5C 316.998,540.837 330.165,522.004 344.5,504C 322.074,458.059 303.574,410.559 289,361.5C 274.883,312.331 270.549,262.331 276,211.5C 290.847,115.004 343.681,49.1709 434.5,14C 457.659,6.00211 481.325,1.16877 505.5,-0.5 Z"/></g>
<g><path style="opacity:0.998" fill="#e5333a" d="M 2006.5,-0.5 C 2009.17,-0.5 2011.83,-0.5 2014.5,-0.5C 2083.05,3.69517 2140.89,30.6952 2188,80.5C 2229.26,130.114 2249.43,187.447 2248.5,252.5C 2248.43,259.859 2248.09,267.193 2247.5,274.5C 2258.5,274.5 2269.5,274.5 2280.5,274.5C 2278.62,311.75 2271.78,348.083 2260,383.5C 2246.09,424.409 2229.92,464.409 2211.5,503.5C 2258.76,566.32 2295.92,634.987 2323,709.5C 2331.87,733.609 2340.04,757.943 2347.5,782.5C 2326.83,782.333 2306.16,782.5 2285.5,783C 2340.8,949.736 2390.13,1118.24 2433.5,1288.5C 2443.08,1288.18 2452.58,1288.51 2462,1289.5C 2483.45,1372.31 2503.79,1455.31 2523,1538.5C 2420.96,1626.22 2317.46,1712.05 2212.5,1796C 2177.42,1796.01 2142.42,1796.68 2107.5,1798C 2082.01,1818.24 2056.35,1838.24 2030.5,1858C 2064.5,1858.33 2098.5,1858.67 2132.5,1859C 1893.03,2045.58 1643.7,2218.08 1384.5,2376.5C 1383.5,2376.5 1382.5,2376.5 1381.5,2376.5C 1341.34,2351.92 1301.01,2327.59 1260.5,2303.5C 1260.5,2303.17 1260.5,2302.83 1260.5,2302.5C 1656.99,2064.85 2030.16,1794.85 2380,1492.5C 2320.2,1232.62 2247.03,976.623 2160.5,724.5C 2161.83,724.167 2161.83,723.833 2160.5,723.5C 2160.17,722.833 2159.83,722.167 2159.5,721.5C 2160.83,721.167 2160.83,720.833 2159.5,720.5C 2159.17,719.833 2158.83,719.167 2158.5,718.5C 2159.83,718.167 2159.83,717.833 2158.5,717.5C 2156.8,709.731 2154.13,702.398 2150.5,695.5C 2151.83,695.167 2151.83,694.833 2150.5,694.5C 2149.83,692.833 2149.17,691.167 2148.5,689.5C 2149.83,689.167 2149.83,688.833 2148.5,688.5C 2148.17,687.833 2147.83,687.167 2147.5,686.5C 2148.83,686.167 2148.83,685.833 2147.5,685.5C 2147.17,684.833 2146.83,684.167 2146.5,683.5C 2147.83,683.167 2147.83,682.833 2146.5,682.5C 2146.5,681.833 2146.5,681.167 2146.5,680.5C 2146.5,679.833 2146.17,679.5 2145.5,679.5C 2145.13,675.693 2143.79,672.36 2141.5,669.5C 2142.83,669.167 2142.83,668.833 2141.5,668.5C 2141.17,667.833 2140.83,667.167 2140.5,666.5C 2141.83,666.167 2141.83,665.833 2140.5,665.5C 2140.5,664.833 2140.5,664.167 2140.5,663.5C 2140.5,662.833 2140.17,662.5 2139.5,662.5C 2138.68,660.105 2137.68,657.771 2136.5,655.5C 2137.83,655.167 2137.83,654.833 2136.5,654.5C 2136.47,652.801 2135.81,651.467 2134.5,650.5C 2135.83,650.167 2135.83,649.833 2134.5,649.5C 2134.47,647.801 2133.81,646.467 2132.5,645.5C 2133.83,645.167 2133.83,644.833 2132.5,644.5C 2131.91,641.101 2130.58,638.101 2128.5,635.5C 2129.83,635.167 2129.83,634.833 2128.5,634.5C 2128.47,632.801 2127.81,631.467 2126.5,630.5C 2127.83,630.167 2127.83,629.833 2126.5,629.5C 2125.53,627.517 2124.53,625.517 2123.5,623.5C 2124.83,623.167 2124.83,622.833 2123.5,622.5C 2123.25,620.059 2122.25,618.059 2120.5,616.5C 2121.83,616.167 2121.83,615.833 2120.5,615.5C 2120.5,615.167 2120.5,614.833 2120.5,614.5C 2120.5,613.833 2120.17,613.5 2119.5,613.5C 2119.25,611.059 2118.25,609.059 2116.5,607.5C 2117.83,607.167 2117.83,606.833 2116.5,606.5C 2115.83,606.5 2115.5,606.167 2115.5,605.5C 2116.83,605.167 2116.83,604.833 2115.5,604.5C 2115.5,604.167 2115.5,603.833 2115.5,603.5C 2115.5,602.833 2115.17,602.5 2114.5,602.5C 2114.5,602.167 2114.5,601.833 2114.5,601.5C 2114.5,600.833 2114.17,600.5 2113.5,600.5C 2111.54,596.522 2109.54,592.522 2107.5,588.5C 2108.83,588.167 2108.83,587.833 2107.5,587.5C 2106.83,587.5 2106.5,587.167 2106.5,586.5C 2107.83,586.167 2107.83,585.833 2106.5,585.5C 2105.83,585.5 2105.5,585.167 2105.5,584.5C 2106.83,584.167 2106.83,583.833 2105.5,583.5C 2104.83,583.5 2104.5,583.167 2104.5,582.5C 2105.83,582.167 2105.83,581.833 2104.5,581.5C 2103.83,581.5 2103.5,581.167 2103.5,580.5C 2104.83,580.167 2104.83,579.833 2103.5,579.5C 2102.83,579.5 2102.5,579.167 2102.5,578.5C 2103.83,578.167 2103.83,577.833 2102.5,577.5C 2100.11,572.877 2097.77,568.21 2095.5,563.5C 2095.5,562.833 2095.17,562.5 2094.5,562.5C 2094.5,562.167 2094.5,561.833 2094.5,561.5C 2094.5,560.833 2094.17,560.5 2093.5,560.5C 2092.83,560.5 2092.5,560.167 2092.5,559.5C 2093.83,559.167 2093.83,558.833 2092.5,558.5C 2091.93,556.745 2090.93,554.745 2089.5,552.5C 2089.5,551.833 2089.17,551.5 2088.5,551.5C 2087.83,551.5 2087.5,551.167 2087.5,550.5C 2088.83,550.167 2088.83,549.833 2087.5,549.5C 2087.69,548.183 2087.02,546.85 2085.5,545.5C 2085.5,544.833 2085.17,544.5 2084.5,544.5C 2084.5,544.167 2084.5,543.833 2084.5,543.5C 2084.5,542.833 2084.17,542.5 2083.5,542.5C 2083.69,541.183 2083.02,539.85 2081.5,538.5C 2081.5,537.833 2081.17,537.5 2080.5,537.5C 2079.83,537.5 2079.5,537.167 2079.5,536.5C 2080.83,536.167 2080.83,535.833 2079.5,535.5C 2078.66,535.158 2078.33,534.492 2078.5,533.5C 2078.5,532.833 2078.17,532.5 2077.5,532.5C 2077.5,532.167 2077.5,531.833 2077.5,531.5C 2077.5,530.833 2077.17,530.5 2076.5,530.5C 2075.66,530.158 2075.33,529.492 2075.5,528.5C 2075.5,527.833 2075.17,527.5 2074.5,527.5C 2074.5,527.167 2074.5,526.833 2074.5,526.5C 2074.5,525.833 2074.17,525.5 2073.5,525.5C 2073.17,524.833 2072.83,524.167 2072.5,523.5C 2072.5,522.833 2072.17,522.5 2071.5,522.5C 2071.69,521.183 2071.02,519.85 2069.5,518.5C 2069.5,517.833 2069.17,517.5 2068.5,517.5C 2067.66,517.158 2067.33,516.492 2067.5,515.5C 2067.5,514.833 2067.17,514.5 2066.5,514.5C 2066.69,513.183 2066.02,511.85 2064.5,510.5C 2064.5,509.833 2064.17,509.5 2063.5,509.5C 2063.17,508.833 2062.83,508.167 2062.5,507.5C 2062.5,506.833 2062.17,506.5 2061.5,506.5C 2058.69,502.452 2056.02,498.285 2053.5,494C 2077.09,449.987 2097.26,404.487 2114,357.5C 2131.47,307.911 2138.47,256.911 2135,204.5C 2131.05,159.964 2116.72,119.297 2092,82.5C 2089,79.2642 2086.16,75.9308 2083.5,72.5C 2083.5,71.8333 2083.17,71.5 2082.5,71.5C 2082.5,70.8333 2082.17,70.5 2081.5,70.5C 2077.86,67.5271 2074.53,64.1938 2071.5,60.5C 2071.5,59.8333 2071.17,59.5 2070.5,59.5C 2024.16,21.4696 1972.5,12.3029 1915.5,32C 1909.37,34.6552 1903.37,37.4886 1897.5,40.5C 1920.73,23.5553 1946.4,11.3886 1974.5,4C 1985.2,1.68464 1995.87,0.18464 2006.5,-0.5 Z"/></g>
<g><path style="opacity:1" fill="#050909" d="M 623.5,39.5 C 630.775,43.1402 637.775,47.3069 644.5,52C 713.659,100.413 782.992,148.58 852.5,196.5C 928.188,169.579 1006.19,154.413 1086.5,151C 1199.5,149.036 1312.5,149.036 1425.5,151C 1509.24,153.381 1590.57,168.548 1669.5,196.5C 1735.28,151.23 1800.95,105.73 1866.5,60C 1876.55,52.9782 1886.89,46.4782 1897.5,40.5C 1903.37,37.4886 1909.37,34.6552 1915.5,32C 1972.5,12.3029 2024.16,21.4696 2070.5,59.5C 2071.17,59.5 2071.5,59.8333 2071.5,60.5C 2074.53,64.1938 2077.86,67.5271 2081.5,70.5C 2082.17,70.5 2082.5,70.8333 2082.5,71.5C 2083.17,71.5 2083.5,71.8333 2083.5,72.5C 2086.16,75.9308 2089,79.2642 2092,82.5C 2116.72,119.297 2131.05,159.964 2135,204.5C 2138.47,256.911 2131.47,307.911 2114,357.5C 2097.26,404.487 2077.09,449.987 2053.5,494C 2056.02,498.285 2058.69,502.452 2061.5,506.5C 2062.17,506.5 2062.5,506.833 2062.5,507.5C 2062.83,508.167 2063.17,508.833 2063.5,509.5C 2064.17,509.5 2064.5,509.833 2064.5,510.5C 2066.02,511.85 2066.69,513.183 2066.5,514.5C 2067.17,514.5 2067.5,514.833 2067.5,515.5C 2067.33,516.492 2067.66,517.158 2068.5,517.5C 2069.17,517.5 2069.5,517.833 2069.5,518.5C 2071.02,519.85 2071.69,521.183 2071.5,522.5C 2072.17,522.5 2072.5,522.833 2072.5,523.5C 2072.83,524.167 2073.17,524.833 2073.5,525.5C 2074.17,525.5 2074.5,525.833 2074.5,526.5C 2074.5,526.833 2074.5,527.167 2074.5,527.5C 2075.17,527.5 2075.5,527.833 2075.5,528.5C 2075.33,529.492 2075.66,530.158 2076.5,530.5C 2077.17,530.5 2077.5,530.833 2077.5,531.5C 2077.5,531.833 2077.5,532.167 2077.5,532.5C 2078.17,532.5 2078.5,532.833 2078.5,533.5C 2078.33,534.492 2078.66,535.158 2079.5,535.5C 2079.5,535.833 2079.5,536.167 2079.5,536.5C 2079.5,537.167 2079.83,537.5 2080.5,537.5C 2081.17,537.5 2081.5,537.833 2081.5,538.5C 2083.02,539.85 2083.69,541.183 2083.5,542.5C 2084.17,542.5 2084.5,542.833 2084.5,543.5C 2084.5,543.833 2084.5,544.167 2084.5,544.5C 2085.17,544.5 2085.5,544.833 2085.5,545.5C 2087.02,546.85 2087.69,548.183 2087.5,549.5C 2087.5,549.833 2087.5,550.167 2087.5,550.5C 2087.5,551.167 2087.83,551.5 2088.5,551.5C 2089.17,551.5 2089.5,551.833 2089.5,552.5C 2090.93,554.745 2091.93,556.745 2092.5,558.5C 2092.5,558.833 2092.5,559.167 2092.5,559.5C 2092.5,560.167 2092.83,560.5 2093.5,560.5C 2094.17,560.5 2094.5,560.833 2094.5,561.5C 2094.5,561.833 2094.5,562.167 2094.5,562.5C 2095.17,562.5 2095.5,562.833 2095.5,563.5C 2097.77,568.21 2100.11,572.877 2102.5,577.5C 2102.5,577.833 2102.5,578.167 2102.5,578.5C 2102.5,579.167 2102.83,579.5 2103.5,579.5C 2103.5,579.833 2103.5,580.167 2103.5,580.5C 2103.5,581.167 2103.83,581.5 2104.5,581.5C 2104.5,581.833 2104.5,582.167 2104.5,582.5C 2104.5,583.167 2104.83,583.5 2105.5,583.5C 2105.5,583.833 2105.5,584.167 2105.5,584.5C 2105.5,585.167 2105.83,585.5 2106.5,585.5C 2106.5,585.833 2106.5,586.167 2106.5,586.5C 2106.5,587.167 2106.83,587.5 2107.5,587.5C 2107.5,587.833 2107.5,588.167 2107.5,588.5C 2109.54,592.522 2111.54,596.522 2113.5,600.5C 2114.17,600.5 2114.5,600.833 2114.5,601.5C 2114.5,601.833 2114.5,602.167 2114.5,602.5C 2115.17,602.5 2115.5,602.833 2115.5,603.5C 2115.5,603.833 2115.5,604.167 2115.5,604.5C 2115.5,604.833 2115.5,605.167 2115.5,605.5C 2115.5,606.167 2115.83,606.5 2116.5,606.5C 2116.5,606.833 2116.5,607.167 2116.5,607.5C 2118.25,609.059 2119.25,611.059 2119.5,613.5C 2120.17,613.5 2120.5,613.833 2120.5,614.5C 2120.5,614.833 2120.5,615.167 2120.5,615.5C 2120.5,615.833 2120.5,616.167 2120.5,616.5C 2122.25,618.059 2123.25,620.059 2123.5,622.5C 2123.5,622.833 2123.5,623.167 2123.5,623.5C 2124.53,625.517 2125.53,627.517 2126.5,629.5C 2126.5,629.833 2126.5,630.167 2126.5,630.5C 2127.81,631.467 2128.47,632.801 2128.5,634.5C 2128.5,634.833 2128.5,635.167 2128.5,635.5C 2130.58,638.101 2131.91,641.101 2132.5,644.5C 2132.5,644.833 2132.5,645.167 2132.5,645.5C 2133.81,646.467 2134.47,647.801 2134.5,649.5C 2134.5,649.833 2134.5,650.167 2134.5,650.5C 2135.81,651.467 2136.47,652.801 2136.5,654.5C 2136.5,654.833 2136.5,655.167 2136.5,655.5C 2137.68,657.771 2138.68,660.105 2139.5,662.5C 2140.17,662.5 2140.5,662.833 2140.5,663.5C 2140.5,664.167 2140.5,664.833 2140.5,665.5C 2140.5,665.833 2140.5,666.167 2140.5,666.5C 2140.83,667.167 2141.17,667.833 2141.5,668.5C 2141.5,668.833 2141.5,669.167 2141.5,669.5C 2143.79,672.36 2145.13,675.693 2145.5,679.5C 2146.17,679.5 2146.5,679.833 2146.5,680.5C 2146.5,681.167 2146.5,681.833 2146.5,682.5C 2146.5,682.833 2146.5,683.167 2146.5,683.5C 2146.83,684.167 2147.17,684.833 2147.5,685.5C 2147.5,685.833 2147.5,686.167 2147.5,686.5C 2147.83,687.167 2148.17,687.833 2148.5,688.5C 2148.5,688.833 2148.5,689.167 2148.5,689.5C 2149.17,691.167 2149.83,692.833 2150.5,694.5C 2150.5,694.833 2150.5,695.167 2150.5,695.5C 2154.13,702.398 2156.8,709.731 2158.5,717.5C 2158.5,717.833 2158.5,718.167 2158.5,718.5C 2158.83,719.167 2159.17,719.833 2159.5,720.5C 2159.5,720.833 2159.5,721.167 2159.5,721.5C 2159.83,722.167 2160.17,722.833 2160.5,723.5C 2160.5,723.833 2160.5,724.167 2160.5,724.5C 2247.03,976.623 2320.2,1232.62 2380,1492.5C 2030.16,1794.85 1656.99,2064.85 1260.5,2302.5C 1126.56,2220.2 994.227,2135.54 863.5,2048.5C 833.537,2027.85 803.537,2007.18 773.5,1986.5C 773.063,1984.93 772.063,1983.76 770.5,1983C 552.58,1829.83 342.914,1665.83 141.5,1491C 206.763,1214.45 285.929,941.948 379,673.5C 401.408,609.516 431.574,549.683 469.5,494C 457.949,471.732 446.783,449.232 436,426.5C 412.595,377.551 396.928,326.218 389,272.5C 381.558,219.465 388.558,168.465 410,119.5C 424.733,85.1077 448.233,58.6077 480.5,40C 527.887,15.9528 575.554,15.7861 623.5,39.5 Z"/></g>
<g><path style="opacity:1" fill="#fdfdfd" d="M 1659.5,748.5 C 1666,748.18 1668.16,751.18 1666,757.5C 1655.67,806.167 1645.33,854.833 1635,903.5C 1633.24,909.865 1629.74,911.032 1624.5,907C 1585.23,873.708 1545.23,841.374 1504.5,810C 1499.08,805.833 1499.41,802.166 1505.5,799C 1556.11,782.74 1606.78,766.573 1657.5,750.5C 1658.71,750.253 1659.38,749.586 1659.5,748.5 Z"/></g>
<g><path style="opacity:1" fill="#fdfdfd" d="M 858.5,750.5 C 861.568,750.547 864.568,751.047 867.5,752C 917.5,768 967.5,784 1017.5,800C 1021.12,802.161 1022.29,805.328 1021,809.5C 978.629,842.198 937.129,876.031 896.5,911C 892.654,912.157 889.821,910.991 888,907.5C 877.039,857.028 866.206,806.528 855.5,756C 855.613,753.601 856.613,751.768 858.5,750.5 Z"/></g>
<g><path style="opacity:1" fill="#fefefe" d="M 1259.5,750.5 C 1292.32,751.494 1318.82,764.827 1339,790.5C 1397.01,889.181 1454.01,988.514 1510,1088.5C 1517.71,1106.39 1522.38,1125.06 1524,1144.5C 1524.67,1258.17 1524.67,1371.83 1524,1485.5C 1519.51,1536.32 1497.34,1577.49 1457.5,1609C 1416.41,1639.19 1370.41,1657.86 1319.5,1665C 1258.88,1674.21 1198.21,1668.87 1137.5,1649C 1094.31,1634.01 1058.48,1608.85 1030,1573.5C 1006.13,1538.96 995.627,1502.46 998.5,1464C 997.833,1415.67 997.167,1367.33 996.5,1319C 997.64,1263.57 997.64,1208.07 996.5,1152.5C 998.314,1120.56 1007.48,1090.89 1024,1063.5C 1076.75,972.336 1129.75,881.336 1183,790.5C 1202.53,765.654 1228.03,752.321 1259.5,750.5 Z"/></g>
<g><path style="opacity:1" fill="#050909" d="M 1258.5,1221.5 C 1260.2,1221.34 1261.87,1221.51 1263.5,1222C 1321.54,1257.09 1376.04,1296.92 1427,1341.5C 1427.67,1343.5 1427.67,1345.5 1427,1347.5C 1411.73,1412.31 1391.06,1475.31 1365,1536.5C 1362.96,1539.23 1360.46,1540.23 1357.5,1539.5C 1341.72,1541.22 1326.22,1542.55 1311,1543.5C 1310,1543.17 1309,1542.83 1308,1542.5C 1261.58,1545.32 1211.75,1544.15 1158.5,1539C 1131.56,1477.19 1110.4,1413.35 1095,1347.5C 1094.29,1345.1 1094.46,1342.77 1095.5,1340.5C 1146.79,1296.52 1201.12,1256.86 1258.5,1221.5 Z"/></g>
<g><path style="opacity:0.997" fill="#257fc2" d="M 863.5,2048.5 C 994.227,2135.54 1126.56,2220.2 1260.5,2302.5C 1260.5,2302.83 1260.5,2303.17 1260.5,2303.5C 1219.96,2327.6 1179.63,2351.93 1139.5,2376.5C 1138.83,2376.5 1138.17,2376.5 1137.5,2376.5C 969.282,2273.23 804.949,2164.23 644.5,2049.5C 717.497,2048.5 790.497,2048.17 863.5,2048.5 Z"/></g>
</svg>
